<svg width="400" height="57" viewBox="0 0 400 57" fill="none" xmlns="http://www.w3.org/2000/svg">
<rect x="2.5" y="2.5" width="179" height="52" rx="2.5" fill="white" stroke="#ED6767" stroke-width="5"/>
<path d="M21.222 20V10.9H22.613L28.32 17.907H27.631V10.9H29.308V20H27.917L22.21 12.993H22.899V20H21.222ZM34.8534 20.091C34.0821 20.091 33.4061 19.9393 32.8254 19.636C32.2534 19.324 31.8071 18.8993 31.4864 18.362C31.1744 17.8247 31.0184 17.2137 31.0184 16.529C31.0184 15.8357 31.1701 15.2247 31.4734 14.696C31.7854 14.1587 32.2101 13.7383 32.7474 13.435C33.2934 13.1317 33.9131 12.98 34.6064 12.98C35.2824 12.98 35.8847 13.1273 36.4134 13.422C36.9421 13.7167 37.3581 14.1327 37.6614 14.67C37.9647 15.2073 38.1164 15.84 38.1164 16.568C38.1164 16.6373 38.1121 16.7153 38.1034 16.802C38.1034 16.8887 38.0991 16.971 38.0904 17.049H32.3054V15.97H37.2324L36.5954 16.308C36.6041 15.9093 36.5217 15.5583 36.3484 15.255C36.1751 14.9517 35.9367 14.7133 35.6334 14.54C35.3387 14.3667 34.9964 14.28 34.6064 14.28C34.2077 14.28 33.8567 14.3667 33.5534 14.54C33.2587 14.7133 33.0247 14.956 32.8514 15.268C32.6867 15.5713 32.6044 15.931 32.6044 16.347V16.607C32.6044 17.023 32.6997 17.3913 32.8904 17.712C33.0811 18.0327 33.3497 18.2797 33.6964 18.453C34.0431 18.6263 34.4417 18.713 34.8924 18.713C35.2824 18.713 35.6334 18.6523 35.9454 18.531C36.2574 18.4097 36.5347 18.219 36.7774 17.959L37.6484 18.96C37.3364 19.324 36.9421 19.6057 36.4654 19.805C35.9974 19.9957 35.4601 20.091 34.8534 20.091ZM41.0844 20L38.5364 13.058H40.0704L42.2544 19.181H41.5264L43.8144 13.058H45.1794L47.4024 19.181H46.6874L48.9364 13.058H50.3794L47.8184 20H46.2584L44.2304 14.579H44.7114L42.6444 20H41.0844ZM59.5094 20.13C58.7988 20.13 58.1444 20.013 57.5464 19.779C56.9484 19.545 56.4284 19.22 55.9864 18.804C55.5444 18.3793 55.2021 17.8853 54.9594 17.322C54.7168 16.75 54.5954 16.126 54.5954 15.45C54.5954 14.774 54.7168 14.1543 54.9594 13.591C55.2021 13.019 55.5444 12.525 55.9864 12.109C56.4284 11.6843 56.9484 11.355 57.5464 11.121C58.1444 10.887 58.7944 10.77 59.4964 10.77C60.2071 10.77 60.8571 10.887 61.4464 11.121C62.0444 11.355 62.5644 11.6843 63.0064 12.109C63.4484 12.525 63.7908 13.019 64.0334 13.591C64.2761 14.1543 64.3974 14.774 64.3974 15.45C64.3974 16.126 64.2761 16.75 64.0334 17.322C63.7908 17.894 63.4484 18.388 63.0064 18.804C62.5644 19.22 62.0444 19.545 61.4464 19.779C60.8571 20.013 60.2114 20.13 59.5094 20.13ZM59.4964 18.648C59.9558 18.648 60.3804 18.57 60.7704 18.414C61.1604 18.258 61.4984 18.037 61.7844 17.751C62.0704 17.4563 62.2914 17.1183 62.4474 16.737C62.6121 16.347 62.6944 15.918 62.6944 15.45C62.6944 14.982 62.6121 14.5573 62.4474 14.176C62.2914 13.786 62.0704 13.448 61.7844 13.162C61.4984 12.8673 61.1604 12.642 60.7704 12.486C60.3804 12.33 59.9558 12.252 59.4964 12.252C59.0371 12.252 58.6124 12.33 58.2224 12.486C57.8411 12.642 57.5031 12.8673 57.2084 13.162C56.9224 13.448 56.6971 13.786 56.5324 14.176C56.3764 14.5573 56.2984 14.982 56.2984 15.45C56.2984 15.9093 56.3764 16.334 56.5324 16.724C56.6971 17.114 56.9224 17.4563 57.2084 17.751C57.4944 18.037 57.8324 18.258 58.2224 18.414C58.6124 18.57 59.0371 18.648 59.4964 18.648ZM66.0328 20V13.058H67.5798V14.969L67.3978 14.41C67.6058 13.942 67.9308 13.5867 68.3728 13.344C68.8235 13.1013 69.3825 12.98 70.0498 12.98V14.527C69.9805 14.5097 69.9155 14.501 69.8548 14.501C69.7941 14.4923 69.7335 14.488 69.6728 14.488C69.0575 14.488 68.5678 14.67 68.2038 15.034C67.8398 15.3893 67.6578 15.9223 67.6578 16.633V20H66.0328ZM74.3028 20.091C73.6355 20.091 73.0332 19.9437 72.4958 19.649C71.9672 19.3457 71.5512 18.9297 71.2478 18.401C70.9445 17.8723 70.7928 17.2483 70.7928 16.529C70.7928 15.8097 70.9445 15.1857 71.2478 14.657C71.5512 14.1283 71.9672 13.7167 72.4958 13.422C73.0332 13.1273 73.6355 12.98 74.3028 12.98C74.8835 12.98 75.4035 13.11 75.8628 13.37C76.3222 13.6213 76.6862 14.007 76.9548 14.527C77.2235 15.047 77.3578 15.7143 77.3578 16.529C77.3578 17.335 77.2278 18.0023 76.9678 18.531C76.7078 19.051 76.3482 19.441 75.8888 19.701C75.4295 19.961 74.9008 20.091 74.3028 20.091ZM74.4978 18.7C74.8878 18.7 75.2345 18.6133 75.5378 18.44C75.8498 18.2667 76.0968 18.0153 76.2788 17.686C76.4695 17.3567 76.5648 16.971 76.5648 16.529C76.5648 16.0783 76.4695 15.6927 76.2788 15.372C76.0968 15.0427 75.8498 14.7913 75.5378 14.618C75.2345 14.4447 74.8878 14.358 74.4978 14.358C74.1078 14.358 73.7568 14.4447 73.4448 14.618C73.1415 14.7913 72.8945 15.0427 72.7038 15.372C72.5218 15.6927 72.4308 16.0783 72.4308 16.529C72.4308 16.971 72.5218 17.3567 72.7038 17.686C72.8945 18.0153 73.1415 18.2667 73.4448 18.44C73.7568 18.6133 74.1078 18.7 74.4978 18.7ZM76.6038 20V18.362L76.6688 16.516L76.5388 14.67V10.354H78.1508V20H76.6038ZM83.5526 20.091C82.7813 20.091 82.1053 19.9393 81.5246 19.636C80.9526 19.324 80.5063 18.8993 80.1856 18.362C79.8736 17.8247 79.7176 17.2137 79.7176 16.529C79.7176 15.8357 79.8693 15.2247 80.1726 14.696C80.4846 14.1587 80.9093 13.7383 81.4466 13.435C81.9926 13.1317 82.6123 12.98 83.3056 12.98C83.9816 12.98 84.584 13.1273 85.1126 13.422C85.6413 13.7167 86.0573 14.1327 86.3606 14.67C86.664 15.2073 86.8156 15.84 86.8156 16.568C86.8156 16.6373 86.8113 16.7153 86.8026 16.802C86.8026 16.8887 86.7983 16.971 86.7896 17.049H81.0046V15.97H85.9316L85.2946 16.308C85.3033 15.9093 85.221 15.5583 85.0476 15.255C84.8743 14.9517 84.636 14.7133 84.3326 14.54C84.038 14.3667 83.6956 14.28 83.3056 14.28C82.907 14.28 82.556 14.3667 82.2526 14.54C81.958 14.7133 81.724 14.956 81.5506 15.268C81.386 15.5713 81.3036 15.931 81.3036 16.347V16.607C81.3036 17.023 81.399 17.3913 81.5896 17.712C81.7803 18.0327 82.049 18.2797 82.3956 18.453C82.7423 18.6263 83.141 18.713 83.5916 18.713C83.9816 18.713 84.3326 18.6523 84.6446 18.531C84.9566 18.4097 85.234 18.219 85.4766 17.959L86.3476 18.96C86.0356 19.324 85.6413 19.6057 85.1646 19.805C84.6966 19.9957 84.1593 20.091 83.5526 20.091ZM88.3765 20V13.058H89.9235V14.969L89.7415 14.41C89.9495 13.942 90.2745 13.5867 90.7165 13.344C91.1672 13.1013 91.7262 12.98 92.3935 12.98V14.527C92.3242 14.5097 92.2592 14.501 92.1985 14.501C92.1379 14.4923 92.0772 14.488 92.0165 14.488C91.4012 14.488 90.9115 14.67 90.5475 15.034C90.1835 15.3893 90.0015 15.9223 90.0015 16.633V20H88.3765Z" fill="black"/>
<path d="M21.155 47V39.3H24.158C24.8327 39.3 25.4083 39.4063 25.885 39.619C26.3617 39.8317 26.7283 40.1397 26.985 40.543C27.2417 40.9463 27.37 41.4267 27.37 41.984C27.37 42.5413 27.2417 43.0217 26.985 43.425C26.7283 43.821 26.3617 44.129 25.885 44.349C25.4083 44.5617 24.8327 44.668 24.158 44.668H21.76L22.255 44.151V47H21.155ZM22.255 44.261L21.76 43.711H24.125C24.829 43.711 25.3607 43.5607 25.72 43.26C26.0867 42.9593 26.27 42.534 26.27 41.984C26.27 41.434 26.0867 41.0087 25.72 40.708C25.3607 40.4073 24.829 40.257 24.125 40.257H21.76L22.255 39.707V44.261ZM28.7246 47V41.17H29.7366V42.754L29.6376 42.358C29.799 41.9547 30.0703 41.6467 30.4516 41.434C30.833 41.2213 31.3023 41.115 31.8596 41.115V42.138C31.8156 42.1307 31.7716 42.127 31.7276 42.127C31.691 42.127 31.6543 42.127 31.6176 42.127C31.053 42.127 30.6056 42.2957 30.2756 42.633C29.9456 42.9703 29.7806 43.458 29.7806 44.096V47H28.7246ZM35.7034 47.066C35.0801 47.066 34.5301 46.9377 34.0534 46.681C33.5841 46.4243 33.2174 46.0723 32.9534 45.625C32.6968 45.1777 32.5684 44.6643 32.5684 44.085C32.5684 43.5057 32.6931 42.9923 32.9424 42.545C33.1991 42.0977 33.5474 41.7493 33.9874 41.5C34.4348 41.2433 34.9371 41.115 35.4944 41.115C36.0591 41.115 36.5578 41.2397 36.9904 41.489C37.4231 41.7383 37.7604 42.0903 38.0024 42.545C38.2518 42.9923 38.3764 43.5167 38.3764 44.118C38.3764 44.162 38.3728 44.2133 38.3654 44.272C38.3654 44.3307 38.3618 44.3857 38.3544 44.437H33.3934V43.678H37.8044L37.3754 43.942C37.3828 43.568 37.3058 43.2343 37.1444 42.941C36.9831 42.6477 36.7594 42.4203 36.4734 42.259C36.1948 42.0903 35.8684 42.006 35.4944 42.006C35.1278 42.006 34.8014 42.0903 34.5154 42.259C34.2294 42.4203 34.0058 42.6513 33.8444 42.952C33.6831 43.2453 33.6024 43.5827 33.6024 43.964V44.14C33.6024 44.5287 33.6904 44.877 33.8664 45.185C34.0498 45.4857 34.3028 45.7203 34.6254 45.889C34.9481 46.0577 35.3184 46.142 35.7364 46.142C36.0811 46.142 36.3928 46.0833 36.6714 45.966C36.9574 45.8487 37.2068 45.6727 37.4194 45.438L38.0024 46.12C37.7384 46.428 37.4084 46.6627 37.0124 46.824C36.6238 46.9853 36.1874 47.066 35.7034 47.066ZM42.9558 41.115C43.4325 41.115 43.8505 41.2067 44.2098 41.39C44.5765 41.5733 44.8625 41.852 45.0678 42.226C45.2731 42.6 45.3758 43.073 45.3758 43.645V47H44.3198V43.766C44.3198 43.2013 44.1805 42.776 43.9018 42.49C43.6305 42.204 43.2455 42.061 42.7468 42.061C42.3728 42.061 42.0465 42.1343 41.7678 42.281C41.4891 42.4277 41.2728 42.644 41.1188 42.93C40.9721 43.216 40.8988 43.5717 40.8988 43.997V47H39.8428V41.17H40.8548V42.743L40.6898 42.325C40.8805 41.9437 41.1738 41.6467 41.5698 41.434C41.9658 41.2213 42.4278 41.115 42.9558 41.115ZM46.7691 47V46.318L50.5091 41.676L50.7181 42.039H46.8351V41.17H51.5651V41.863L47.8251 46.494L47.5831 46.131H51.6531V47H46.7691ZM53.0664 47V38.838H54.1224V47H53.0664ZM59.7577 47V45.768L59.7027 45.537V43.436C59.7027 42.9887 59.5707 42.644 59.3067 42.402C59.05 42.1527 58.6614 42.028 58.1407 42.028C57.796 42.028 57.4587 42.0867 57.1287 42.204C56.7987 42.314 56.52 42.4643 56.2927 42.655L55.8527 41.863C56.1534 41.621 56.5127 41.4377 56.9307 41.313C57.356 41.181 57.7997 41.115 58.2617 41.115C59.061 41.115 59.677 41.3093 60.1097 41.698C60.5424 42.0867 60.7587 42.6807 60.7587 43.48V47H59.7577ZM57.8437 47.066C57.411 47.066 57.0297 46.9927 56.6997 46.846C56.377 46.6993 56.1277 46.4977 55.9517 46.241C55.7757 45.977 55.6877 45.68 55.6877 45.35C55.6877 45.0347 55.761 44.7487 55.9077 44.492C56.0617 44.2353 56.3074 44.03 56.6447 43.876C56.9894 43.722 57.4514 43.645 58.0307 43.645H59.8787V44.404H58.0747C57.5467 44.404 57.191 44.492 57.0077 44.668C56.8244 44.844 56.7327 45.0567 56.7327 45.306C56.7327 45.592 56.8464 45.823 57.0737 45.999C57.301 46.1677 57.6164 46.252 58.0197 46.252C58.4157 46.252 58.7604 46.164 59.0537 45.988C59.3544 45.812 59.5707 45.5553 59.7027 45.218L59.9117 45.944C59.7724 46.2887 59.5267 46.5637 59.1747 46.769C58.8227 46.967 58.379 47.066 57.8437 47.066ZM65.1659 47.066C64.6672 47.066 64.2272 46.9743 63.8459 46.791C63.4719 46.6077 63.1786 46.329 62.9659 45.955C62.7606 45.5737 62.6579 45.097 62.6579 44.525V41.17H63.7139V44.404C63.7139 44.976 63.8496 45.405 64.1209 45.691C64.3996 45.977 64.7882 46.12 65.2869 46.12C65.6536 46.12 65.9726 46.0467 66.2439 45.9C66.5152 45.746 66.7242 45.526 66.8709 45.24C67.0176 44.9467 67.0909 44.5947 67.0909 44.184V41.17H68.1469V47H67.1459V45.427L67.3109 45.845C67.1202 46.2337 66.8342 46.5343 66.4529 46.747C66.0716 46.9597 65.6426 47.066 65.1659 47.066ZM72.7533 47.066C72.1299 47.066 71.5799 46.9377 71.1033 46.681C70.6339 46.4243 70.2673 46.0723 70.0033 45.625C69.7466 45.1777 69.6183 44.6643 69.6183 44.085C69.6183 43.5057 69.7429 42.9923 69.9923 42.545C70.2489 42.0977 70.5973 41.7493 71.0373 41.5C71.4846 41.2433 71.9869 41.115 72.5443 41.115C73.1089 41.115 73.6076 41.2397 74.0403 41.489C74.4729 41.7383 74.8103 42.0903 75.0523 42.545C75.3016 42.9923 75.4263 43.5167 75.4263 44.118C75.4263 44.162 75.4226 44.2133 75.4153 44.272C75.4153 44.3307 75.4116 44.3857 75.4043 44.437H70.4433V43.678H74.8543L74.4253 43.942C74.4326 43.568 74.3556 43.2343 74.1943 42.941C74.0329 42.6477 73.8093 42.4203 73.5233 42.259C73.2446 42.0903 72.9183 42.006 72.5443 42.006C72.1776 42.006 71.8513 42.0903 71.5653 42.259C71.2793 42.4203 71.0556 42.6513 70.8943 42.952C70.7329 43.2453 70.6523 43.5827 70.6523 43.964V44.14C70.6523 44.5287 70.7403 44.877 70.9163 45.185C71.0996 45.4857 71.3526 45.7203 71.6753 45.889C71.9979 46.0577 72.3683 46.142 72.7863 46.142C73.1309 46.142 73.4426 46.0833 73.7213 45.966C74.0073 45.8487 74.2566 45.6727 74.4693 45.438L75.0523 46.12C74.7883 46.428 74.4583 46.6627 74.0623 46.824C73.6736 46.9853 73.2373 47.066 72.7533 47.066ZM76.8926 47V41.17H77.9046V42.754L77.8056 42.358C77.9669 41.9547 78.2383 41.6467 78.6196 41.434C79.0009 41.2213 79.4703 41.115 80.0276 41.115V42.138C79.9836 42.1307 79.9396 42.127 79.8956 42.127C79.8589 42.127 79.8223 42.127 79.7856 42.127C79.2209 42.127 78.7736 42.2957 78.4436 42.633C78.1136 42.9703 77.9486 43.458 77.9486 44.096V47H76.8926ZM87.9774 47V45.768L87.9224 45.537V43.436C87.9224 42.9887 87.7904 42.644 87.5264 42.402C87.2698 42.1527 86.8811 42.028 86.3604 42.028C86.0158 42.028 85.6784 42.0867 85.3484 42.204C85.0184 42.314 84.7398 42.4643 84.5124 42.655L84.0724 41.863C84.3731 41.621 84.7324 41.4377 85.1504 41.313C85.5758 41.181 86.0194 41.115 86.4814 41.115C87.2808 41.115 87.8968 41.3093 88.3294 41.698C88.7621 42.0867 88.9784 42.6807 88.9784 43.48V47H87.9774ZM86.0634 47.066C85.6308 47.066 85.2494 46.9927 84.9194 46.846C84.5968 46.6993 84.3474 46.4977 84.1714 46.241C83.9954 45.977 83.9074 45.68 83.9074 45.35C83.9074 45.0347 83.9808 44.7487 84.1274 44.492C84.2814 44.2353 84.5271 44.03 84.8644 43.876C85.2091 43.722 85.6711 43.645 86.2504 43.645H88.0984V44.404H86.2944C85.7664 44.404 85.4108 44.492 85.2274 44.668C85.0441 44.844 84.9524 45.0567 84.9524 45.306C84.9524 45.592 85.0661 45.823 85.2934 45.999C85.5208 46.1677 85.8361 46.252 86.2394 46.252C86.6354 46.252 86.9801 46.164 87.2734 45.988C87.5741 45.812 87.7904 45.5553 87.9224 45.218L88.1314 45.944C87.9921 46.2887 87.7464 46.5637 87.3944 46.769C87.0424 46.967 86.5988 47.066 86.0634 47.066ZM90.9326 47V38.838H91.9886V47H90.9326ZM96.6009 47.066C95.9776 47.066 95.4276 46.9377 94.9509 46.681C94.4816 46.4243 94.1149 46.0723 93.8509 45.625C93.5942 45.1777 93.4659 44.6643 93.4659 44.085C93.4659 43.5057 93.5906 42.9923 93.8399 42.545C94.0966 42.0977 94.4449 41.7493 94.8849 41.5C95.3322 41.2433 95.8346 41.115 96.3919 41.115C96.9566 41.115 97.4552 41.2397 97.8879 41.489C98.3206 41.7383 98.6579 42.0903 98.8999 42.545C99.1492 42.9923 99.2739 43.5167 99.2739 44.118C99.2739 44.162 99.2702 44.2133 99.2629 44.272C99.2629 44.3307 99.2592 44.3857 99.2519 44.437H94.2909V43.678H98.7019L98.2729 43.942C98.2802 43.568 98.2032 43.2343 98.0419 42.941C97.8806 42.6477 97.6569 42.4203 97.3709 42.259C97.0922 42.0903 96.7659 42.006 96.3919 42.006C96.0252 42.006 95.6989 42.0903 95.4129 42.259C95.1269 42.4203 94.9032 42.6513 94.7419 42.952C94.5806 43.2453 94.4999 43.5827 94.4999 43.964V44.14C94.4999 44.5287 94.5879 44.877 94.7639 45.185C94.9472 45.4857 95.2002 45.7203 95.5229 45.889C95.8456 46.0577 96.2159 46.142 96.6339 46.142C96.9786 46.142 97.2902 46.0833 97.5689 45.966C97.8549 45.8487 98.1042 45.6727 98.3169 45.438L98.8999 46.12C98.6359 46.428 98.3059 46.6627 97.9099 46.824C97.5212 46.9853 97.0849 47.066 96.6009 47.066ZM103.336 47.066C102.713 47.066 102.163 46.9377 101.686 46.681C101.217 46.4243 100.85 46.0723 100.586 45.625C100.33 45.1777 100.201 44.6643 100.201 44.085C100.201 43.5057 100.326 42.9923 100.575 42.545C100.832 42.0977 101.18 41.7493 101.62 41.5C102.068 41.2433 102.57 41.115 103.127 41.115C103.692 41.115 104.191 41.2397 104.623 41.489C105.056 41.7383 105.393 42.0903 105.635 42.545C105.885 42.9923 106.009 43.5167 106.009 44.118C106.009 44.162 106.006 44.2133 105.998 44.272C105.998 44.3307 105.995 44.3857 105.987 44.437H101.026V43.678H105.437L105.008 43.942C105.016 43.568 104.939 43.2343 104.777 42.941C104.616 42.6477 104.392 42.4203 104.106 42.259C103.828 42.0903 103.501 42.006 103.127 42.006C102.761 42.006 102.434 42.0903 102.148 42.259C101.862 42.4203 101.639 42.6513 101.477 42.952C101.316 43.2453 101.235 43.5827 101.235 43.964V44.14C101.235 44.5287 101.323 44.877 101.499 45.185C101.683 45.4857 101.936 45.7203 102.258 45.889C102.581 46.0577 102.951 46.142 103.369 46.142C103.714 46.142 104.026 46.0833 104.304 45.966C104.59 45.8487 104.84 45.6727 105.052 45.438L105.635 46.12C105.371 46.428 105.041 46.6627 104.645 46.824C104.257 46.9853 103.82 47.066 103.336 47.066ZM109.836 47V46.252L112.971 43.227C113.249 42.963 113.455 42.732 113.587 42.534C113.726 42.3287 113.818 42.1417 113.862 41.973C113.913 41.797 113.939 41.6283 113.939 41.467C113.939 41.071 113.799 40.7593 113.521 40.532C113.242 40.3047 112.835 40.191 112.3 40.191C111.889 40.191 111.519 40.2607 111.189 40.4C110.859 40.532 110.573 40.741 110.331 41.027L109.583 40.378C109.876 40.004 110.268 39.718 110.76 39.52C111.258 39.3147 111.805 39.212 112.399 39.212C112.934 39.212 113.4 39.3 113.796 39.476C114.192 39.6447 114.496 39.8903 114.709 40.213C114.929 40.5357 115.039 40.917 115.039 41.357C115.039 41.6063 115.006 41.852 114.94 42.094C114.874 42.336 114.749 42.5927 114.566 42.864C114.382 43.1353 114.118 43.4397 113.774 43.777L110.98 46.472L110.716 46.043H115.369V47H109.836ZM117.571 47V39.74L118.044 40.257H115.833V39.3H118.66V47H117.571ZM120.399 48.628L120.949 46.406L121.092 47.044C120.88 47.044 120.7 46.978 120.553 46.846C120.414 46.714 120.344 46.5343 120.344 46.307C120.344 46.087 120.414 45.9073 120.553 45.768C120.7 45.6287 120.876 45.559 121.081 45.559C121.294 45.559 121.466 45.6323 121.598 45.779C121.73 45.9183 121.796 46.0943 121.796 46.307C121.796 46.3803 121.789 46.4537 121.774 46.527C121.767 46.593 121.749 46.6737 121.719 46.769C121.697 46.857 121.661 46.967 121.609 47.099L121.092 48.628H120.399ZM128.145 47.088C127.602 47.088 127.074 47.0037 126.561 46.835C126.055 46.6663 125.64 46.439 125.318 46.153L125.824 45.284C126.08 45.526 126.414 45.724 126.825 45.878C127.235 46.032 127.675 46.109 128.145 46.109C128.717 46.109 129.16 45.988 129.476 45.746C129.798 45.4967 129.96 45.163 129.96 44.745C129.96 44.3417 129.806 44.019 129.498 43.777C129.197 43.5277 128.717 43.403 128.057 43.403H127.441V42.633L129.729 39.817L129.883 40.257H125.67V39.3H130.752V40.048L128.475 42.853L127.903 42.512H128.266C129.197 42.512 129.894 42.721 130.356 43.139C130.825 43.557 131.06 44.0887 131.06 44.734C131.06 45.1667 130.953 45.5627 130.741 45.922C130.528 46.2813 130.205 46.5673 129.773 46.78C129.347 46.9853 128.805 47.088 128.145 47.088ZM131.976 45.108V44.338L135.914 39.3H137.102L133.197 44.338L132.636 44.162H138.785V45.108H131.976ZM136.255 47V45.108L136.288 44.162V42.49H137.322V47H136.255ZM142.59 47.088C141.989 47.088 141.45 46.934 140.973 46.626C140.504 46.318 140.13 45.8707 139.851 45.284C139.58 44.6973 139.444 43.986 139.444 43.15C139.444 42.314 139.58 41.6027 139.851 41.016C140.13 40.4293 140.504 39.982 140.973 39.674C141.45 39.366 141.989 39.212 142.59 39.212C143.184 39.212 143.719 39.366 144.196 39.674C144.673 39.982 145.047 40.4293 145.318 41.016C145.589 41.6027 145.725 42.314 145.725 43.15C145.725 43.986 145.589 44.6973 145.318 45.284C145.047 45.8707 144.673 46.318 144.196 46.626C143.719 46.934 143.184 47.088 142.59 47.088ZM142.59 46.109C142.993 46.109 143.345 45.999 143.646 45.779C143.954 45.559 144.192 45.229 144.361 44.789C144.537 44.349 144.625 43.8027 144.625 43.15C144.625 42.4973 144.537 41.951 144.361 41.511C144.192 41.071 143.954 40.741 143.646 40.521C143.345 40.301 142.993 40.191 142.59 40.191C142.187 40.191 141.831 40.301 141.523 40.521C141.215 40.741 140.973 41.071 140.797 41.511C140.628 41.951 140.544 42.4973 140.544 43.15C140.544 43.8027 140.628 44.349 140.797 44.789C140.973 45.229 141.215 45.559 141.523 45.779C141.831 45.999 142.187 46.109 142.59 46.109ZM149.267 47.088C148.724 47.088 148.196 47.0037 147.683 46.835C147.177 46.6663 146.763 46.439 146.44 46.153L146.946 45.284C147.203 45.526 147.536 45.724 147.947 45.878C148.358 46.032 148.794 46.109 149.256 46.109C149.843 46.109 150.294 45.9843 150.609 45.735C150.924 45.4857 151.082 45.152 151.082 44.734C151.082 44.448 151.012 44.1987 150.873 43.986C150.734 43.7733 150.492 43.612 150.147 43.502C149.81 43.3847 149.344 43.326 148.75 43.326H147.001L147.408 39.3H151.753V40.257H147.815L148.387 39.718L148.068 42.897L147.496 42.369H148.981C149.751 42.369 150.371 42.468 150.84 42.666C151.309 42.864 151.65 43.139 151.863 43.491C152.076 43.8357 152.182 44.2353 152.182 44.69C152.182 45.13 152.076 45.5333 151.863 45.9C151.65 46.2593 151.328 46.549 150.895 46.769C150.47 46.9817 149.927 47.088 149.267 47.088ZM156.243 47.088C155.642 47.088 155.103 46.934 154.626 46.626C154.157 46.318 153.783 45.8707 153.504 45.284C153.233 44.6973 153.097 43.986 153.097 43.15C153.097 42.314 153.233 41.6027 153.504 41.016C153.783 40.4293 154.157 39.982 154.626 39.674C155.103 39.366 155.642 39.212 156.243 39.212C156.837 39.212 157.373 39.366 157.849 39.674C158.326 39.982 158.7 40.4293 158.971 41.016C159.243 41.6027 159.378 42.314 159.378 43.15C159.378 43.986 159.243 44.6973 158.971 45.284C158.7 45.8707 158.326 46.318 157.849 46.626C157.373 46.934 156.837 47.088 156.243 47.088ZM156.243 46.109C156.647 46.109 156.999 45.999 157.299 45.779C157.607 45.559 157.846 45.229 158.014 44.789C158.19 44.349 158.278 43.8027 158.278 43.15C158.278 42.4973 158.19 41.951 158.014 41.511C157.846 41.071 157.607 40.741 157.299 40.521C156.999 40.301 156.647 40.191 156.243 40.191C155.84 40.191 155.484 40.301 155.176 40.521C154.868 40.741 154.626 41.071 154.45 41.511C154.282 41.951 154.197 42.4973 154.197 43.15C154.197 43.8027 154.282 44.349 154.45 44.789C154.626 45.229 154.868 45.559 155.176 45.779C155.484 45.999 155.84 46.109 156.243 46.109Z" fill="black"/>
<path d="M21.155 33V25.3H22.057L25.511 31.119H25.027L28.437 25.3H29.339L29.35 33H28.294L28.283 26.961H28.536L25.5 32.065H24.994L21.936 26.961H22.211V33H21.155ZM31.5069 33V27.17H32.5189V28.754L32.4199 28.358C32.5812 27.9547 32.8525 27.6467 33.2339 27.434C33.6152 27.2213 34.0845 27.115 34.6419 27.115V28.138C34.5979 28.1307 34.5539 28.127 34.5099 28.127C34.4732 28.127 34.4365 28.127 34.3999 28.127C33.8352 28.127 33.3879 28.2957 33.0579 28.633C32.7279 28.9703 32.5629 29.458 32.5629 30.096V33H31.5069ZM36.1642 33.066C35.9588 33.066 35.7828 32.9963 35.6362 32.857C35.4895 32.7103 35.4162 32.527 35.4162 32.307C35.4162 32.087 35.4895 31.9073 35.6362 31.768C35.7828 31.6287 35.9588 31.559 36.1642 31.559C36.3622 31.559 36.5308 31.6287 36.6702 31.768C36.8168 31.9073 36.8902 32.087 36.8902 32.307C36.8902 32.527 36.8168 32.7103 36.6702 32.857C36.5308 32.9963 36.3622 33.066 36.1642 33.066ZM41.5114 33V25.3H44.5144C45.1891 25.3 45.7648 25.4063 46.2414 25.619C46.7181 25.8317 47.0848 26.1397 47.3414 26.543C47.5981 26.9463 47.7264 27.4267 47.7264 27.984C47.7264 28.5413 47.5981 29.0217 47.3414 29.425C47.0848 29.821 46.7181 30.1253 46.2414 30.338C45.7648 30.5507 45.1891 30.657 44.5144 30.657H42.1164L42.6114 30.151V33H41.5114ZM46.6594 33L44.7014 30.206H45.8784L47.8584 33H46.6594ZM42.6114 30.261L42.1164 29.722H44.4814C45.1854 29.722 45.7171 29.5717 46.0764 29.271C46.4431 28.963 46.6264 28.534 46.6264 27.984C46.6264 27.434 46.4431 27.0087 46.0764 26.708C45.7171 26.4073 45.1854 26.257 44.4814 26.257H42.1164L42.6114 25.707V30.261ZM51.8466 33.066C51.26 33.066 50.7393 32.9377 50.2846 32.681C49.83 32.4243 49.4706 32.0723 49.2066 31.625C48.9426 31.1703 48.8106 30.657 48.8106 30.085C48.8106 29.5057 48.9426 28.9923 49.2066 28.545C49.4706 28.0977 49.83 27.7493 50.2846 27.5C50.7393 27.2433 51.26 27.115 51.8466 27.115C52.426 27.115 52.943 27.2433 53.3976 27.5C53.8596 27.7493 54.219 28.0977 54.4756 28.545C54.7396 28.985 54.8716 29.4983 54.8716 30.085C54.8716 30.6643 54.7396 31.1777 54.4756 31.625C54.219 32.0723 53.8596 32.4243 53.3976 32.681C52.943 32.9377 52.426 33.066 51.8466 33.066ZM51.8466 32.142C52.2206 32.142 52.5543 32.0577 52.8476 31.889C53.1483 31.7203 53.383 31.482 53.5516 31.174C53.7203 30.8587 53.8046 30.4957 53.8046 30.085C53.8046 29.667 53.7203 29.3077 53.5516 29.007C53.383 28.699 53.1483 28.4607 52.8476 28.292C52.5543 28.1233 52.2206 28.039 51.8466 28.039C51.4726 28.039 51.139 28.1233 50.8456 28.292C50.5523 28.4607 50.3176 28.699 50.1416 29.007C49.9656 29.3077 49.8776 29.667 49.8776 30.085C49.8776 30.4957 49.9656 30.8587 50.1416 31.174C50.3176 31.482 50.5523 31.7203 50.8456 31.889C51.139 32.0577 51.4726 32.142 51.8466 32.142ZM59.4231 33.066C58.9244 33.066 58.4734 32.956 58.0701 32.736C57.6741 32.5087 57.3587 32.175 57.1241 31.735C56.8967 31.295 56.7831 30.745 56.7831 30.085C56.7831 29.425 56.9004 28.875 57.1351 28.435C57.3771 27.995 57.6961 27.665 58.0921 27.445C58.4954 27.225 58.9391 27.115 59.4231 27.115C59.9951 27.115 60.5011 27.2397 60.9411 27.489C61.3811 27.7383 61.7294 28.0867 61.9861 28.534C62.2427 28.974 62.3711 29.491 62.3711 30.085C62.3711 30.679 62.2427 31.1997 61.9861 31.647C61.7294 32.0943 61.3811 32.4427 60.9411 32.692C60.5011 32.9413 59.9951 33.066 59.4231 33.066ZM56.3321 33V24.838H57.3881V28.721L57.2781 30.074L57.3441 31.427V33H56.3321ZM59.3351 32.142C59.7091 32.142 60.0427 32.0577 60.3361 31.889C60.6367 31.7203 60.8714 31.482 61.0401 31.174C61.2161 30.8587 61.3041 30.4957 61.3041 30.085C61.3041 29.667 61.2161 29.3077 61.0401 29.007C60.8714 28.699 60.6367 28.4607 60.3361 28.292C60.0427 28.1233 59.7091 28.039 59.3351 28.039C58.9684 28.039 58.6347 28.1233 58.3341 28.292C58.0407 28.4607 57.8061 28.699 57.6301 29.007C57.4614 29.3077 57.3771 29.667 57.3771 30.085C57.3771 30.4957 57.4614 30.8587 57.6301 31.174C57.8061 31.482 58.0407 31.7203 58.3341 31.889C58.6347 32.0577 58.9684 32.142 59.3351 32.142ZM66.4261 33.066C65.8028 33.066 65.2528 32.9377 64.7761 32.681C64.3068 32.4243 63.9401 32.0723 63.6761 31.625C63.4194 31.1777 63.2911 30.6643 63.2911 30.085C63.2911 29.5057 63.4158 28.9923 63.6651 28.545C63.9218 28.0977 64.2701 27.7493 64.7101 27.5C65.1574 27.2433 65.6598 27.115 66.2171 27.115C66.7818 27.115 67.2804 27.2397 67.7131 27.489C68.1458 27.7383 68.4831 28.0903 68.7251 28.545C68.9744 28.9923 69.0991 29.5167 69.0991 30.118C69.0991 30.162 69.0954 30.2133 69.0881 30.272C69.0881 30.3307 69.0844 30.3857 69.0771 30.437H64.1161V29.678H68.5271L68.0981 29.942C68.1054 29.568 68.0284 29.2343 67.8671 28.941C67.7058 28.6477 67.4821 28.4203 67.1961 28.259C66.9174 28.0903 66.5911 28.006 66.2171 28.006C65.8504 28.006 65.5241 28.0903 65.2381 28.259C64.9521 28.4203 64.7284 28.6513 64.5671 28.952C64.4058 29.2453 64.3251 29.5827 64.3251 29.964V30.14C64.3251 30.5287 64.4131 30.877 64.5891 31.185C64.7724 31.4857 65.0254 31.7203 65.3481 31.889C65.6708 32.0577 66.0411 32.142 66.4591 32.142C66.8038 32.142 67.1154 32.0833 67.3941 31.966C67.6801 31.8487 67.9294 31.6727 68.1421 31.438L68.7251 32.12C68.4611 32.428 68.1311 32.6627 67.7351 32.824C67.3464 32.9853 66.9101 33.066 66.4261 33.066ZM70.5655 33V27.17H71.5775V28.754L71.4785 28.358C71.6398 27.9547 71.9111 27.6467 72.2925 27.434C72.6738 27.2213 73.1431 27.115 73.7005 27.115V28.138C73.6565 28.1307 73.6125 28.127 73.5685 28.127C73.5318 28.127 73.4951 28.127 73.4585 28.127C72.8938 28.127 72.4465 28.2957 72.1165 28.633C71.7865 28.9703 71.6215 29.458 71.6215 30.096V33H70.5655ZM78.1853 33V25.3H79.0873L82.5413 31.119H82.0573L85.4673 25.3H86.3693L86.3803 33H85.3243L85.3133 26.961H85.5663L82.5303 32.065H82.0243L78.9663 26.961H79.2413V33H78.1853ZM90.9901 33.066C90.4915 33.066 90.0515 32.9743 89.6701 32.791C89.2961 32.6077 89.0028 32.329 88.7901 31.955C88.5848 31.5737 88.4821 31.097 88.4821 30.525V27.17H89.5381V30.404C89.5381 30.976 89.6738 31.405 89.9451 31.691C90.2238 31.977 90.6125 32.12 91.1111 32.12C91.4778 32.12 91.7968 32.0467 92.0681 31.9C92.3395 31.746 92.5485 31.526 92.6951 31.24C92.8418 30.9467 92.9151 30.5947 92.9151 30.184V27.17H93.9711V33H92.9701V31.427L93.1351 31.845C92.9445 32.2337 92.6585 32.5343 92.2771 32.747C91.8958 32.9597 91.4668 33.066 90.9901 33.066ZM95.9815 33V24.838H97.0375V33H95.9815ZM99.0537 33V24.838H100.11V33H99.0537ZM104.722 33.066C104.099 33.066 103.549 32.9377 103.072 32.681C102.603 32.4243 102.236 32.0723 101.972 31.625C101.715 31.1777 101.587 30.6643 101.587 30.085C101.587 29.5057 101.712 28.9923 101.961 28.545C102.218 28.0977 102.566 27.7493 103.006 27.5C103.453 27.2433 103.956 27.115 104.513 27.115C105.078 27.115 105.576 27.2397 106.009 27.489C106.442 27.7383 106.779 28.0903 107.021 28.545C107.27 28.9923 107.395 29.5167 107.395 30.118C107.395 30.162 107.391 30.2133 107.384 30.272C107.384 30.3307 107.38 30.3857 107.373 30.437H102.412V29.678H106.823L106.394 29.942C106.401 29.568 106.324 29.2343 106.163 28.941C106.002 28.6477 105.778 28.4203 105.492 28.259C105.213 28.0903 104.887 28.006 104.513 28.006C104.146 28.006 103.82 28.0903 103.534 28.259C103.248 28.4203 103.024 28.6513 102.863 28.952C102.702 29.2453 102.621 29.5827 102.621 29.964V30.14C102.621 30.5287 102.709 30.877 102.885 31.185C103.068 31.4857 103.321 31.7203 103.644 31.889C103.967 32.0577 104.337 32.142 104.755 32.142C105.1 32.142 105.411 32.0833 105.69 31.966C105.976 31.8487 106.225 31.6727 106.438 31.438L107.021 32.12C106.757 32.428 106.427 32.6627 106.031 32.824C105.642 32.9853 105.206 33.066 104.722 33.066ZM108.861 33V27.17H109.873V28.754L109.774 28.358C109.936 27.9547 110.207 27.6467 110.588 27.434C110.97 27.2213 111.439 27.115 111.996 27.115V28.138C111.952 28.1307 111.908 28.127 111.864 28.127C111.828 28.127 111.791 28.127 111.754 28.127C111.19 28.127 110.742 28.2957 110.412 28.633C110.082 28.9703 109.917 29.458 109.917 30.096V33H108.861Z" fill="black"/>
<path d="M21.155 33V25.3H22.057L25.511 31.119H25.027L28.437 25.3H29.339L29.35 33H28.294L28.283 26.961H28.536L25.5 32.065H24.994L21.936 26.961H22.211V33H21.155ZM31.5069 33V27.17H32.5189V28.754L32.4199 28.358C32.5812 27.9547 32.8525 27.6467 33.2339 27.434C33.6152 27.2213 34.0845 27.115 34.6419 27.115V28.138C34.5979 28.1307 34.5539 28.127 34.5099 28.127C34.4732 28.127 34.4365 28.127 34.3999 28.127C33.8352 28.127 33.3879 28.2957 33.0579 28.633C32.7279 28.9703 32.5629 29.458 32.5629 30.096V33H31.5069ZM36.1642 33.066C35.9588 33.066 35.7828 32.9963 35.6362 32.857C35.4895 32.7103 35.4162 32.527 35.4162 32.307C35.4162 32.087 35.4895 31.9073 35.6362 31.768C35.7828 31.6287 35.9588 31.559 36.1642 31.559C36.3622 31.559 36.5308 31.6287 36.6702 31.768C36.8168 31.9073 36.8902 32.087 36.8902 32.307C36.8902 32.527 36.8168 32.7103 36.6702 32.857C36.5308 32.9963 36.3622 33.066 36.1642 33.066ZM41.5114 33V25.3H44.5144C45.1891 25.3 45.7648 25.4063 46.2414 25.619C46.7181 25.8317 47.0848 26.1397 47.3414 26.543C47.5981 26.9463 47.7264 27.4267 47.7264 27.984C47.7264 28.5413 47.5981 29.0217 47.3414 29.425C47.0848 29.821 46.7181 30.1253 46.2414 30.338C45.7648 30.5507 45.1891 30.657 44.5144 30.657H42.1164L42.6114 30.151V33H41.5114ZM46.6594 33L44.7014 30.206H45.8784L47.8584 33H46.6594ZM42.6114 30.261L42.1164 29.722H44.4814C45.1854 29.722 45.7171 29.5717 46.0764 29.271C46.4431 28.963 46.6264 28.534 46.6264 27.984C46.6264 27.434 46.4431 27.0087 46.0764 26.708C45.7171 26.4073 45.1854 26.257 44.4814 26.257H42.1164L42.6114 25.707V30.261ZM51.8466 33.066C51.26 33.066 50.7393 32.9377 50.2846 32.681C49.83 32.4243 49.4706 32.0723 49.2066 31.625C48.9426 31.1703 48.8106 30.657 48.8106 30.085C48.8106 29.5057 48.9426 28.9923 49.2066 28.545C49.4706 28.0977 49.83 27.7493 50.2846 27.5C50.7393 27.2433 51.26 27.115 51.8466 27.115C52.426 27.115 52.943 27.2433 53.3976 27.5C53.8596 27.7493 54.219 28.0977 54.4756 28.545C54.7396 28.985 54.8716 29.4983 54.8716 30.085C54.8716 30.6643 54.7396 31.1777 54.4756 31.625C54.219 32.0723 53.8596 32.4243 53.3976 32.681C52.943 32.9377 52.426 33.066 51.8466 33.066ZM51.8466 32.142C52.2206 32.142 52.5543 32.0577 52.8476 31.889C53.1483 31.7203 53.383 31.482 53.5516 31.174C53.7203 30.8587 53.8046 30.4957 53.8046 30.085C53.8046 29.667 53.7203 29.3077 53.5516 29.007C53.383 28.699 53.1483 28.4607 52.8476 28.292C52.5543 28.1233 52.2206 28.039 51.8466 28.039C51.4726 28.039 51.139 28.1233 50.8456 28.292C50.5523 28.4607 50.3176 28.699 50.1416 29.007C49.9656 29.3077 49.8776 29.667 49.8776 30.085C49.8776 30.4957 49.9656 30.8587 50.1416 31.174C50.3176 31.482 50.5523 31.7203 50.8456 31.889C51.139 32.0577 51.4726 32.142 51.8466 32.142ZM59.4231 33.066C58.9244 33.066 58.4734 32.956 58.0701 32.736C57.6741 32.5087 57.3587 32.175 57.1241 31.735C56.8967 31.295 56.7831 30.745 56.7831 30.085C56.7831 29.425 56.9004 28.875 57.1351 28.435C57.3771 27.995 57.6961 27.665 58.0921 27.445C58.4954 27.225 58.9391 27.115 59.4231 27.115C59.9951 27.115 60.5011 27.2397 60.9411 27.489C61.3811 27.7383 61.7294 28.0867 61.9861 28.534C62.2427 28.974 62.3711 29.491 62.3711 30.085C62.3711 30.679 62.2427 31.1997 61.9861 31.647C61.7294 32.0943 61.3811 32.4427 60.9411 32.692C60.5011 32.9413 59.9951 33.066 59.4231 33.066ZM56.3321 33V24.838H57.3881V28.721L57.2781 30.074L57.3441 31.427V33H56.3321ZM59.3351 32.142C59.7091 32.142 60.0427 32.0577 60.3361 31.889C60.6367 31.7203 60.8714 31.482 61.0401 31.174C61.2161 30.8587 61.3041 30.4957 61.3041 30.085C61.3041 29.667 61.2161 29.3077 61.0401 29.007C60.8714 28.699 60.6367 28.4607 60.3361 28.292C60.0427 28.1233 59.7091 28.039 59.3351 28.039C58.9684 28.039 58.6347 28.1233 58.3341 28.292C58.0407 28.4607 57.8061 28.699 57.6301 29.007C57.4614 29.3077 57.3771 29.667 57.3771 30.085C57.3771 30.4957 57.4614 30.8587 57.6301 31.174C57.8061 31.482 58.0407 31.7203 58.3341 31.889C58.6347 32.0577 58.9684 32.142 59.3351 32.142ZM66.4261 33.066C65.8028 33.066 65.2528 32.9377 64.7761 32.681C64.3068 32.4243 63.9401 32.0723 63.6761 31.625C63.4194 31.1777 63.2911 30.6643 63.2911 30.085C63.2911 29.5057 63.4158 28.9923 63.6651 28.545C63.9218 28.0977 64.2701 27.7493 64.7101 27.5C65.1574 27.2433 65.6598 27.115 66.2171 27.115C66.7818 27.115 67.2804 27.2397 67.7131 27.489C68.1458 27.7383 68.4831 28.0903 68.7251 28.545C68.9744 28.9923 69.0991 29.5167 69.0991 30.118C69.0991 30.162 69.0954 30.2133 69.0881 30.272C69.0881 30.3307 69.0844 30.3857 69.0771 30.437H64.1161V29.678H68.5271L68.0981 29.942C68.1054 29.568 68.0284 29.2343 67.8671 28.941C67.7058 28.6477 67.4821 28.4203 67.1961 28.259C66.9174 28.0903 66.5911 28.006 66.2171 28.006C65.8504 28.006 65.5241 28.0903 65.2381 28.259C64.9521 28.4203 64.7284 28.6513 64.5671 28.952C64.4058 29.2453 64.3251 29.5827 64.3251 29.964V30.14C64.3251 30.5287 64.4131 30.877 64.5891 31.185C64.7724 31.4857 65.0254 31.7203 65.3481 31.889C65.6708 32.0577 66.0411 32.142 66.4591 32.142C66.8038 32.142 67.1154 32.0833 67.3941 31.966C67.6801 31.8487 67.9294 31.6727 68.1421 31.438L68.7251 32.12C68.4611 32.428 68.1311 32.6627 67.7351 32.824C67.3464 32.9853 66.9101 33.066 66.4261 33.066ZM70.5655 33V27.17H71.5775V28.754L71.4785 28.358C71.6398 27.9547 71.9111 27.6467 72.2925 27.434C72.6738 27.2213 73.1431 27.115 73.7005 27.115V28.138C73.6565 28.1307 73.6125 28.127 73.5685 28.127C73.5318 28.127 73.4951 28.127 73.4585 28.127C72.8938 28.127 72.4465 28.2957 72.1165 28.633C71.7865 28.9703 71.6215 29.458 71.6215 30.096V33H70.5655ZM78.1853 33V25.3H79.0873L82.5413 31.119H82.0573L85.4673 25.3H86.3693L86.3803 33H85.3243L85.3133 26.961H85.5663L82.5303 32.065H82.0243L78.9663 26.961H79.2413V33H78.1853ZM90.9901 33.066C90.4915 33.066 90.0515 32.9743 89.6701 32.791C89.2961 32.6077 89.0028 32.329 88.7901 31.955C88.5848 31.5737 88.4821 31.097 88.4821 30.525V27.17H89.5381V30.404C89.5381 30.976 89.6738 31.405 89.9451 31.691C90.2238 31.977 90.6125 32.12 91.1111 32.12C91.4778 32.12 91.7968 32.0467 92.0681 31.9C92.3395 31.746 92.5485 31.526 92.6951 31.24C92.8418 30.9467 92.9151 30.5947 92.9151 30.184V27.17H93.9711V33H92.9701V31.427L93.1351 31.845C92.9445 32.2337 92.6585 32.5343 92.2771 32.747C91.8958 32.9597 91.4668 33.066 90.9901 33.066ZM95.9815 33V24.838H97.0375V33H95.9815ZM99.0537 33V24.838H100.11V33H99.0537ZM104.722 33.066C104.099 33.066 103.549 32.9377 103.072 32.681C102.603 32.4243 102.236 32.0723 101.972 31.625C101.715 31.1777 101.587 30.6643 101.587 30.085C101.587 29.5057 101.712 28.9923 101.961 28.545C102.218 28.0977 102.566 27.7493 103.006 27.5C103.453 27.2433 103.956 27.115 104.513 27.115C105.078 27.115 105.576 27.2397 106.009 27.489C106.442 27.7383 106.779 28.0903 107.021 28.545C107.27 28.9923 107.395 29.5167 107.395 30.118C107.395 30.162 107.391 30.2133 107.384 30.272C107.384 30.3307 107.38 30.3857 107.373 30.437H102.412V29.678H106.823L106.394 29.942C106.401 29.568 106.324 29.2343 106.163 28.941C106.002 28.6477 105.778 28.4203 105.492 28.259C105.213 28.0903 104.887 28.006 104.513 28.006C104.146 28.006 103.82 28.0903 103.534 28.259C103.248 28.4203 103.024 28.6513 102.863 28.952C102.702 29.2453 102.621 29.5827 102.621 29.964V30.14C102.621 30.5287 102.709 30.877 102.885 31.185C103.068 31.4857 103.321 31.7203 103.644 31.889C103.967 32.0577 104.337 32.142 104.755 32.142C105.1 32.142 105.411 32.0833 105.69 31.966C105.976 31.8487 106.225 31.6727 106.438 31.438L107.021 32.12C106.757 32.428 106.427 32.6627 106.031 32.824C105.642 32.9853 105.206 33.066 104.722 33.066ZM108.861 33V27.17H109.873V28.754L109.774 28.358C109.936 27.9547 110.207 27.6467 110.588 27.434C110.97 27.2213 111.439 27.115 111.996 27.115V28.138C111.952 28.1307 111.908 28.127 111.864 28.127C111.828 28.127 111.791 28.127 111.754 28.127C111.19 28.127 110.742 28.2957 110.412 28.633C110.082 28.9703 109.917 29.458 109.917 30.096V33H108.861Z" fill="black"/>
<rect x="218.5" y="2.5" width="179" height="52" rx="2.5" fill="white" stroke="#ACE1FF" stroke-width="5"/>
<path d="M236.222 24V14.9H240.2C241.188 14.9 242.055 15.0907 242.8 15.472C243.545 15.8533 244.126 16.382 244.542 17.058C244.958 17.734 245.166 18.5313 245.166 19.45C245.166 20.36 244.958 21.1573 244.542 21.842C244.126 22.518 243.545 23.0467 242.8 23.428C242.055 23.8093 241.188 24 240.2 24H236.222ZM237.912 22.57H240.122C240.807 22.57 241.396 22.44 241.89 22.18C242.393 21.92 242.778 21.556 243.047 21.088C243.324 20.62 243.463 20.074 243.463 19.45C243.463 18.8173 243.324 18.2713 243.047 17.812C242.778 17.344 242.393 16.98 241.89 16.72C241.396 16.46 240.807 16.33 240.122 16.33H237.912V22.57ZM250.069 24.091C249.298 24.091 248.622 23.9393 248.041 23.636C247.469 23.324 247.023 22.8993 246.702 22.362C246.39 21.8247 246.234 21.2137 246.234 20.529C246.234 19.8357 246.386 19.2247 246.689 18.696C247.001 18.1587 247.426 17.7383 247.963 17.435C248.509 17.1317 249.129 16.98 249.822 16.98C250.498 16.98 251.101 17.1273 251.629 17.422C252.158 17.7167 252.574 18.1327 252.877 18.67C253.181 19.2073 253.332 19.84 253.332 20.568C253.332 20.6373 253.328 20.7153 253.319 20.802C253.319 20.8887 253.315 20.971 253.306 21.049H247.521V19.97H252.448L251.811 20.308C251.82 19.9093 251.738 19.5583 251.564 19.255C251.391 18.9517 251.153 18.7133 250.849 18.54C250.555 18.3667 250.212 18.28 249.822 18.28C249.424 18.28 249.073 18.3667 248.769 18.54C248.475 18.7133 248.241 18.956 248.067 19.268C247.903 19.5713 247.82 19.931 247.82 20.347V20.607C247.82 21.023 247.916 21.3913 248.106 21.712C248.297 22.0327 248.566 22.2797 248.912 22.453C249.259 22.6263 249.658 22.713 250.108 22.713C250.498 22.713 250.849 22.6523 251.161 22.531C251.473 22.4097 251.751 22.219 251.993 21.959L252.864 22.96C252.552 23.324 252.158 23.6057 251.681 23.805C251.213 23.9957 250.676 24.091 250.069 24.091ZM254.893 24V14.354H256.518V24H254.893ZM258.651 24V17.058H260.276V24H258.651ZM259.47 15.914C259.167 15.914 258.915 15.8187 258.716 15.628C258.525 15.4373 258.43 15.2077 258.43 14.939C258.43 14.6617 258.525 14.432 258.716 14.25C258.915 14.0593 259.167 13.964 259.47 13.964C259.773 13.964 260.02 14.055 260.211 14.237C260.41 14.4103 260.51 14.6313 260.51 14.9C260.51 15.186 260.415 15.4287 260.224 15.628C260.033 15.8187 259.782 15.914 259.47 15.914ZM264.255 24L261.278 17.058H262.968L265.529 23.181H264.697L267.349 17.058H268.909L265.932 24H264.255ZM272.997 24.091C272.226 24.091 271.55 23.9393 270.969 23.636C270.397 23.324 269.951 22.8993 269.63 22.362C269.318 21.8247 269.162 21.2137 269.162 20.529C269.162 19.8357 269.314 19.2247 269.617 18.696C269.929 18.1587 270.354 17.7383 270.891 17.435C271.437 17.1317 272.057 16.98 272.75 16.98C273.426 16.98 274.028 17.1273 274.557 17.422C275.086 17.7167 275.502 18.1327 275.805 18.67C276.108 19.2073 276.26 19.84 276.26 20.568C276.26 20.6373 276.256 20.7153 276.247 20.802C276.247 20.8887 276.243 20.971 276.234 21.049H270.449V19.97H275.376L274.739 20.308C274.748 19.9093 274.665 19.5583 274.492 19.255C274.319 18.9517 274.08 18.7133 273.777 18.54C273.482 18.3667 273.14 18.28 272.75 18.28C272.351 18.28 272 18.3667 271.697 18.54C271.402 18.7133 271.168 18.956 270.995 19.268C270.83 19.5713 270.748 19.931 270.748 20.347V20.607C270.748 21.023 270.843 21.3913 271.034 21.712C271.225 22.0327 271.493 22.2797 271.84 22.453C272.187 22.6263 272.585 22.713 273.036 22.713C273.426 22.713 273.777 22.6523 274.089 22.531C274.401 22.4097 274.678 22.219 274.921 21.959L275.792 22.96C275.48 23.324 275.086 23.6057 274.609 23.805C274.141 23.9957 273.604 24.091 272.997 24.091ZM277.821 24V17.058H279.368V18.969L279.186 18.41C279.394 17.942 279.719 17.5867 280.161 17.344C280.612 17.1013 281.171 16.98 281.838 16.98V18.527C281.769 18.5097 281.704 18.501 281.643 18.501C281.582 18.4923 281.522 18.488 281.461 18.488C280.846 18.488 280.356 18.67 279.992 19.034C279.628 19.3893 279.446 19.9223 279.446 20.633V24H277.821ZM284.042 26.613C283.704 26.613 283.366 26.5567 283.028 26.444C282.69 26.3313 282.409 26.1753 282.183 25.976L282.833 24.78C282.998 24.9273 283.184 25.0443 283.392 25.131C283.6 25.2177 283.813 25.261 284.029 25.261C284.324 25.261 284.562 25.1873 284.744 25.04C284.926 24.8927 285.095 24.6457 285.251 24.299L285.654 23.389L285.784 23.194L288.41 17.058H289.97L286.72 24.559C286.504 25.079 286.261 25.4907 285.992 25.794C285.732 26.0973 285.438 26.3097 285.108 26.431C284.788 26.5523 284.432 26.613 284.042 26.613ZM285.472 24.247L282.339 17.058H284.029L286.577 23.051L285.472 24.247ZM294.579 24V17.058H296.204V24H294.579ZM295.398 15.914C295.094 15.914 294.843 15.8187 294.644 15.628C294.453 15.4373 294.358 15.2077 294.358 14.939C294.358 14.6617 294.453 14.432 294.644 14.25C294.843 14.0593 295.094 13.964 295.398 13.964C295.701 13.964 295.948 14.055 296.139 14.237C296.338 14.4103 296.438 14.6313 296.438 14.9C296.438 15.186 296.342 15.4287 296.152 15.628C295.961 15.8187 295.71 15.914 295.398 15.914ZM302.276 16.98C302.83 16.98 303.324 17.0883 303.758 17.305C304.2 17.5217 304.546 17.8553 304.798 18.306C305.049 18.748 305.175 19.32 305.175 20.022V24H303.55V20.23C303.55 19.6147 303.402 19.1553 303.108 18.852C302.822 18.5487 302.419 18.397 301.899 18.397C301.517 18.397 301.179 18.475 300.885 18.631C300.59 18.787 300.36 19.021 300.196 19.333C300.04 19.6363 299.962 20.022 299.962 20.49V24H298.337V17.058H299.884V18.93L299.611 18.358C299.853 17.916 300.204 17.578 300.664 17.344C301.132 17.1013 301.669 16.98 302.276 16.98ZM311.791 24V15.55L312.532 16.317H309.867V14.9H313.481V24H311.791ZM315.169 24V22.869L318.783 19.437C319.086 19.151 319.312 18.8997 319.459 18.683C319.606 18.4663 319.702 18.267 319.745 18.085C319.797 17.8943 319.823 17.7167 319.823 17.552C319.823 17.136 319.68 16.8153 319.394 16.59C319.108 16.356 318.688 16.239 318.133 16.239C317.691 16.239 317.288 16.317 316.924 16.473C316.569 16.629 316.261 16.8673 316.001 17.188L314.818 16.278C315.173 15.8013 315.65 15.433 316.248 15.173C316.855 14.9043 317.531 14.77 318.276 14.77C318.935 14.77 319.507 14.8783 319.992 15.095C320.486 15.303 320.863 15.602 321.123 15.992C321.392 16.382 321.526 16.8457 321.526 17.383C321.526 17.6777 321.487 17.9723 321.409 18.267C321.331 18.553 321.184 18.8563 320.967 19.177C320.75 19.4977 320.434 19.8573 320.018 20.256L316.911 23.207L316.56 22.57H321.877V24H315.169ZM335.701 16.98C336.256 16.98 336.745 17.0883 337.17 17.305C337.603 17.5217 337.941 17.8553 338.184 18.306C338.427 18.748 338.548 19.32 338.548 20.022V24H336.923V20.23C336.923 19.6147 336.789 19.1553 336.52 18.852C336.251 18.5487 335.866 18.397 335.363 18.397C335.008 18.397 334.691 18.475 334.414 18.631C334.145 18.787 333.933 19.0167 333.777 19.32C333.63 19.6233 333.556 20.009 333.556 20.477V24H331.931V20.23C331.931 19.6147 331.797 19.1553 331.528 18.852C331.259 18.5487 330.874 18.397 330.371 18.397C330.016 18.397 329.699 18.475 329.422 18.631C329.153 18.787 328.941 19.0167 328.785 19.32C328.638 19.6233 328.564 20.009 328.564 20.477V24H326.939V17.058H328.486V18.904L328.213 18.358C328.447 17.9073 328.785 17.565 329.227 17.331C329.678 17.097 330.189 16.98 330.761 16.98C331.411 16.98 331.974 17.1403 332.451 17.461C332.936 17.7817 333.257 18.267 333.413 18.917L332.776 18.696C333.001 18.176 333.374 17.76 333.894 17.448C334.414 17.136 335.016 16.98 335.701 16.98ZM340.625 24V17.058H342.25V24H340.625ZM341.444 15.914C341.14 15.914 340.889 15.8187 340.69 15.628C340.499 15.4373 340.404 15.2077 340.404 14.939C340.404 14.6617 340.499 14.432 340.69 14.25C340.889 14.0593 341.14 13.964 341.444 13.964C341.747 13.964 341.994 14.055 342.185 14.237C342.384 14.4103 342.484 14.6313 342.484 14.9C342.484 15.186 342.388 15.4287 342.198 15.628C342.007 15.8187 341.756 15.914 341.444 15.914ZM348.321 16.98C348.876 16.98 349.37 17.0883 349.803 17.305C350.245 17.5217 350.592 17.8553 350.843 18.306C351.095 18.748 351.22 19.32 351.22 20.022V24H349.595V20.23C349.595 19.6147 349.448 19.1553 349.153 18.852C348.867 18.5487 348.464 18.397 347.944 18.397C347.563 18.397 347.225 18.475 346.93 18.631C346.636 18.787 346.406 19.021 346.241 19.333C346.085 19.6363 346.007 20.022 346.007 20.49V24H344.382V17.058H345.929V18.93L345.656 18.358C345.899 17.916 346.25 17.578 346.709 17.344C347.177 17.1013 347.715 16.98 348.321 16.98ZM356.22 24.091C355.63 24.091 355.11 23.9827 354.66 23.766C354.209 23.5407 353.858 23.2027 353.607 22.752C353.355 22.2927 353.23 21.7163 353.23 21.023V17.058H354.855V20.802C354.855 21.426 354.993 21.894 355.271 22.206C355.557 22.5093 355.96 22.661 356.48 22.661C356.861 22.661 357.19 22.583 357.468 22.427C357.754 22.271 357.975 22.037 358.131 21.725C358.295 21.413 358.378 21.0273 358.378 20.568V17.058H360.003V24H358.456V22.128L358.729 22.7C358.495 23.1507 358.152 23.4973 357.702 23.74C357.251 23.974 356.757 24.091 356.22 24.091ZM364.743 24.091C363.981 24.091 363.391 23.896 362.975 23.506C362.559 23.1073 362.351 22.5223 362.351 21.751V15.524H363.976V21.712C363.976 22.0413 364.059 22.297 364.223 22.479C364.397 22.661 364.635 22.752 364.938 22.752C365.302 22.752 365.606 22.6567 365.848 22.466L366.303 23.623C366.113 23.779 365.879 23.896 365.601 23.974C365.324 24.052 365.038 24.091 364.743 24.091ZM361.207 18.41V17.11H365.835V18.41H361.207ZM370.675 24.091C369.903 24.091 369.227 23.9393 368.647 23.636C368.075 23.324 367.628 22.8993 367.308 22.362C366.996 21.8247 366.84 21.2137 366.84 20.529C366.84 19.8357 366.991 19.2247 367.295 18.696C367.607 18.1587 368.031 17.7383 368.569 17.435C369.115 17.1317 369.734 16.98 370.428 16.98C371.104 16.98 371.706 17.1273 372.235 17.422C372.763 17.7167 373.179 18.1327 373.483 18.67C373.786 19.2073 373.938 19.84 373.938 20.568C373.938 20.6373 373.933 20.7153 373.925 20.802C373.925 20.8887 373.92 20.971 373.912 21.049H368.127V19.97H373.054L372.417 20.308C372.425 19.9093 372.343 19.5583 372.17 19.255C371.996 18.9517 371.758 18.7133 371.455 18.54C371.16 18.3667 370.818 18.28 370.428 18.28C370.029 18.28 369.678 18.3667 369.375 18.54C369.08 18.7133 368.846 18.956 368.673 19.268C368.508 19.5713 368.426 19.931 368.426 20.347V20.607C368.426 21.023 368.521 21.3913 368.712 21.712C368.902 22.0327 369.171 22.2797 369.518 22.453C369.864 22.6263 370.263 22.713 370.714 22.713C371.104 22.713 371.455 22.6523 371.767 22.531C372.079 22.4097 372.356 22.219 372.599 21.959L373.47 22.96C373.158 23.324 372.763 23.6057 372.287 23.805C371.819 23.9957 371.281 24.091 370.675 24.091ZM377.644 24.091C377.063 24.091 376.504 24.0173 375.967 23.87C375.438 23.714 375.018 23.5277 374.706 23.311L375.33 22.076C375.642 22.2753 376.014 22.44 376.448 22.57C376.881 22.7 377.314 22.765 377.748 22.765C378.259 22.765 378.627 22.6957 378.853 22.557C379.087 22.4183 379.204 22.232 379.204 21.998C379.204 21.8073 379.126 21.6643 378.97 21.569C378.814 21.465 378.61 21.387 378.359 21.335C378.107 21.283 377.826 21.2353 377.514 21.192C377.21 21.1487 376.903 21.0923 376.591 21.023C376.287 20.945 376.01 20.8367 375.759 20.698C375.507 20.5507 375.304 20.3557 375.148 20.113C374.992 19.8703 374.914 19.5497 374.914 19.151C374.914 18.709 375.039 18.3277 375.291 18.007C375.542 17.6777 375.893 17.4263 376.344 17.253C376.803 17.071 377.345 16.98 377.969 16.98C378.437 16.98 378.909 17.032 379.386 17.136C379.862 17.24 380.257 17.3873 380.569 17.578L379.945 18.813C379.615 18.6137 379.282 18.4793 378.944 18.41C378.614 18.332 378.285 18.293 377.956 18.293C377.462 18.293 377.093 18.3667 376.851 18.514C376.617 18.6613 376.5 18.8477 376.5 19.073C376.5 19.281 376.578 19.437 376.734 19.541C376.89 19.645 377.093 19.7273 377.345 19.788C377.596 19.8487 377.873 19.9007 378.177 19.944C378.489 19.9787 378.796 20.035 379.1 20.113C379.403 20.191 379.68 20.2993 379.932 20.438C380.192 20.568 380.4 20.7543 380.556 20.997C380.712 21.2397 380.79 21.556 380.79 21.946C380.79 22.3793 380.66 22.7563 380.4 23.077C380.148 23.3977 379.789 23.649 379.321 23.831C378.853 24.0043 378.294 24.091 377.644 24.091Z" fill="black"/>
<path d="M240.155 40V32.3H243.4C244.221 32.3 244.944 32.4613 245.567 32.784C246.198 33.1067 246.685 33.5577 247.03 34.137C247.382 34.7163 247.558 35.3873 247.558 36.15C247.558 36.9127 247.382 37.5837 247.03 38.163C246.685 38.7423 246.198 39.1933 245.567 39.516C244.944 39.8387 244.221 40 243.4 40H240.155ZM241.255 39.043H243.334C243.972 39.043 244.522 38.922 244.984 38.68C245.453 38.438 245.816 38.1007 246.073 37.668C246.33 37.228 246.458 36.722 246.458 36.15C246.458 35.5707 246.33 35.0647 246.073 34.632C245.816 34.1993 245.453 33.862 244.984 33.62C244.522 33.378 243.972 33.257 243.334 33.257H241.255V39.043ZM251.685 40.066C251.062 40.066 250.512 39.9377 250.035 39.681C249.566 39.4243 249.199 39.0723 248.935 38.625C248.678 38.1777 248.55 37.6643 248.55 37.085C248.55 36.5057 248.675 35.9923 248.924 35.545C249.181 35.0977 249.529 34.7493 249.969 34.5C250.416 34.2433 250.919 34.115 251.476 34.115C252.041 34.115 252.539 34.2397 252.972 34.489C253.405 34.7383 253.742 35.0903 253.984 35.545C254.233 35.9923 254.358 36.5167 254.358 37.118C254.358 37.162 254.354 37.2133 254.347 37.272C254.347 37.3307 254.343 37.3857 254.336 37.437H249.375V36.678H253.786L253.357 36.942C253.364 36.568 253.287 36.2343 253.126 35.941C252.965 35.6477 252.741 35.4203 252.455 35.259C252.176 35.0903 251.85 35.006 251.476 35.006C251.109 35.006 250.783 35.0903 250.497 35.259C250.211 35.4203 249.987 35.6513 249.826 35.952C249.665 36.2453 249.584 36.5827 249.584 36.964V37.14C249.584 37.5287 249.672 37.877 249.848 38.185C250.031 38.4857 250.284 38.7203 250.607 38.889C250.93 39.0577 251.3 39.142 251.718 39.142C252.063 39.142 252.374 39.0833 252.653 38.966C252.939 38.8487 253.188 38.6727 253.401 38.438L253.984 39.12C253.72 39.428 253.39 39.6627 252.994 39.824C252.605 39.9853 252.169 40.066 251.685 40.066ZM255.824 40V31.838H256.88V40H255.824ZM258.897 40V34.17H259.953V40H258.897ZM259.425 33.048C259.219 33.048 259.047 32.982 258.908 32.85C258.776 32.718 258.71 32.5567 258.71 32.366C258.71 32.168 258.776 32.003 258.908 31.871C259.047 31.739 259.219 31.673 259.425 31.673C259.63 31.673 259.799 31.739 259.931 31.871C260.07 31.9957 260.14 32.1533 260.14 32.344C260.14 32.542 260.074 32.7107 259.942 32.85C259.81 32.982 259.637 33.048 259.425 33.048ZM263.498 40L260.946 34.17H262.046L264.312 39.45H263.784L266.094 34.17H267.128L264.576 40H263.498ZM270.548 40.066C269.925 40.066 269.375 39.9377 268.898 39.681C268.429 39.4243 268.062 39.0723 267.798 38.625C267.542 38.1777 267.413 37.6643 267.413 37.085C267.413 36.5057 267.538 35.9923 267.787 35.545C268.044 35.0977 268.392 34.7493 268.832 34.5C269.28 34.2433 269.782 34.115 270.339 34.115C270.904 34.115 271.403 34.2397 271.835 34.489C272.268 34.7383 272.605 35.0903 272.847 35.545C273.097 35.9923 273.221 36.5167 273.221 37.118C273.221 37.162 273.218 37.2133 273.21 37.272C273.21 37.3307 273.207 37.3857 273.199 37.437H268.238V36.678H272.649L272.22 36.942C272.228 36.568 272.151 36.2343 271.989 35.941C271.828 35.6477 271.604 35.4203 271.318 35.259C271.04 35.0903 270.713 35.006 270.339 35.006C269.973 35.006 269.646 35.0903 269.36 35.259C269.074 35.4203 268.851 35.6513 268.689 35.952C268.528 36.2453 268.447 36.5827 268.447 36.964V37.14C268.447 37.5287 268.535 37.877 268.711 38.185C268.895 38.4857 269.148 38.7203 269.47 38.889C269.793 39.0577 270.163 39.142 270.581 39.142C270.926 39.142 271.238 39.0833 271.516 38.966C271.802 38.8487 272.052 38.6727 272.264 38.438L272.847 39.12C272.583 39.428 272.253 39.6627 271.857 39.824C271.469 39.9853 271.032 40.066 270.548 40.066ZM274.688 40V34.17H275.7V35.754L275.601 35.358C275.762 34.9547 276.033 34.6467 276.415 34.434C276.796 34.2213 277.265 34.115 277.823 34.115V35.138C277.779 35.1307 277.735 35.127 277.691 35.127C277.654 35.127 277.617 35.127 277.581 35.127C277.016 35.127 276.569 35.2957 276.239 35.633C275.909 35.9703 275.744 36.458 275.744 37.096V40H274.688ZM279.613 42.2C279.335 42.2 279.063 42.1523 278.799 42.057C278.535 41.969 278.308 41.837 278.117 41.661L278.568 40.869C278.715 41.0083 278.876 41.1147 279.052 41.188C279.228 41.2613 279.415 41.298 279.613 41.298C279.87 41.298 280.083 41.232 280.251 41.1C280.42 40.968 280.578 40.7333 280.724 40.396L281.087 39.593L281.197 39.461L283.485 34.17H284.519L281.692 40.583C281.524 40.9937 281.333 41.3163 281.12 41.551C280.915 41.7857 280.688 41.9507 280.438 42.046C280.189 42.1487 279.914 42.2 279.613 42.2ZM280.999 40.187L278.337 34.17H279.437L281.703 39.362L280.999 40.187ZM291.55 40.066C291.051 40.066 290.6 39.956 290.197 39.736C289.801 39.5087 289.486 39.175 289.251 38.735C289.024 38.295 288.91 37.745 288.91 37.085C288.91 36.425 289.027 35.875 289.262 35.435C289.504 34.995 289.823 34.665 290.219 34.445C290.622 34.225 291.066 34.115 291.55 34.115C292.122 34.115 292.628 34.2397 293.068 34.489C293.508 34.7383 293.856 35.0867 294.113 35.534C294.37 35.974 294.498 36.491 294.498 37.085C294.498 37.679 294.37 38.1997 294.113 38.647C293.856 39.0943 293.508 39.4427 293.068 39.692C292.628 39.9413 292.122 40.066 291.55 40.066ZM288.459 40V31.838H289.515V35.721L289.405 37.074L289.471 38.427V40H288.459ZM291.462 39.142C291.836 39.142 292.17 39.0577 292.463 38.889C292.764 38.7203 292.998 38.482 293.167 38.174C293.343 37.8587 293.431 37.4957 293.431 37.085C293.431 36.667 293.343 36.3077 293.167 36.007C292.998 35.699 292.764 35.4607 292.463 35.292C292.17 35.1233 291.836 35.039 291.462 35.039C291.095 35.039 290.762 35.1233 290.461 35.292C290.168 35.4607 289.933 35.699 289.757 36.007C289.588 36.3077 289.504 36.667 289.504 37.085C289.504 37.4957 289.588 37.8587 289.757 38.174C289.933 38.482 290.168 38.7203 290.461 38.889C290.762 39.0577 291.095 39.142 291.462 39.142ZM296.049 42.2C295.77 42.2 295.499 42.1523 295.235 42.057C294.971 41.969 294.744 41.837 294.553 41.661L295.004 40.869C295.151 41.0083 295.312 41.1147 295.488 41.188C295.664 41.2613 295.851 41.298 296.049 41.298C296.306 41.298 296.518 41.232 296.687 41.1C296.856 40.968 297.013 40.7333 297.16 40.396L297.523 39.593L297.633 39.461L299.921 34.17H300.955L298.128 40.583C297.959 40.9937 297.769 41.3163 297.556 41.551C297.351 41.7857 297.123 41.9507 296.874 42.046C296.625 42.1487 296.35 42.2 296.049 42.2ZM297.435 40.187L294.773 34.17H295.873L298.139 39.362L297.435 40.187ZM302.269 35.622C302.063 35.622 301.887 35.5523 301.741 35.413C301.594 35.2663 301.521 35.083 301.521 34.863C301.521 34.643 301.594 34.4633 301.741 34.324C301.887 34.1847 302.063 34.115 302.269 34.115C302.467 34.115 302.635 34.1847 302.775 34.324C302.921 34.4633 302.995 34.643 302.995 34.863C302.995 35.083 302.921 35.2663 302.775 35.413C302.635 35.5523 302.467 35.622 302.269 35.622ZM302.269 40.066C302.063 40.066 301.887 39.9963 301.741 39.857C301.594 39.7103 301.521 39.527 301.521 39.307C301.521 39.087 301.594 38.9073 301.741 38.768C301.887 38.6287 302.063 38.559 302.269 38.559C302.467 38.559 302.635 38.6287 302.775 38.768C302.921 38.9073 302.995 39.087 302.995 39.307C302.995 39.527 302.921 39.7103 302.775 39.857C302.635 39.9963 302.467 40.066 302.269 40.066ZM308.606 40.088C308.151 40.088 307.726 39.9927 307.33 39.802C306.934 39.6113 306.611 39.3363 306.362 38.977L307 38.229C307.213 38.5223 307.451 38.7497 307.715 38.911C307.986 39.065 308.283 39.142 308.606 39.142C309.486 39.142 309.926 38.6213 309.926 37.58V33.257H307.143V32.3H311.015V37.525C311.015 38.383 310.81 39.0247 310.399 39.45C309.996 39.8753 309.398 40.088 308.606 40.088ZM315.599 40.066C315.012 40.066 314.491 39.9377 314.037 39.681C313.582 39.4243 313.223 39.0723 312.959 38.625C312.695 38.1703 312.563 37.657 312.563 37.085C312.563 36.5057 312.695 35.9923 312.959 35.545C313.223 35.0977 313.582 34.7493 314.037 34.5C314.491 34.2433 315.012 34.115 315.599 34.115C316.178 34.115 316.695 34.2433 317.15 34.5C317.612 34.7493 317.971 35.0977 318.228 35.545C318.492 35.985 318.624 36.4983 318.624 37.085C318.624 37.6643 318.492 38.1777 318.228 38.625C317.971 39.0723 317.612 39.4243 317.15 39.681C316.695 39.9377 316.178 40.066 315.599 40.066ZM315.599 39.142C315.973 39.142 316.306 39.0577 316.6 38.889C316.9 38.7203 317.135 38.482 317.304 38.174C317.472 37.8587 317.557 37.4957 317.557 37.085C317.557 36.667 317.472 36.3077 317.304 36.007C317.135 35.699 316.9 35.4607 316.6 35.292C316.306 35.1233 315.973 35.039 315.599 35.039C315.225 35.039 314.891 35.1233 314.598 35.292C314.304 35.4607 314.07 35.699 313.894 36.007C313.718 36.3077 313.63 36.667 313.63 37.085C313.63 37.4957 313.718 37.8587 313.894 38.174C314.07 38.482 314.304 38.7203 314.598 38.889C314.891 39.0577 315.225 39.142 315.599 39.142ZM323.197 34.115C323.674 34.115 324.092 34.2067 324.451 34.39C324.818 34.5733 325.104 34.852 325.309 35.226C325.514 35.6 325.617 36.073 325.617 36.645V40H324.561V36.766C324.561 36.2013 324.422 35.776 324.143 35.49C323.872 35.204 323.487 35.061 322.988 35.061C322.614 35.061 322.288 35.1343 322.009 35.281C321.73 35.4277 321.514 35.644 321.36 35.93C321.213 36.216 321.14 36.5717 321.14 36.997V40H320.084V31.838H321.14V35.743L320.931 35.325C321.122 34.9437 321.415 34.6467 321.811 34.434C322.207 34.2213 322.669 34.115 323.197 34.115ZM330.684 34.115C331.161 34.115 331.579 34.2067 331.938 34.39C332.305 34.5733 332.591 34.852 332.796 35.226C333.002 35.6 333.104 36.073 333.104 36.645V40H332.048V36.766C332.048 36.2013 331.909 35.776 331.63 35.49C331.359 35.204 330.974 35.061 330.475 35.061C330.101 35.061 329.775 35.1343 329.496 35.281C329.218 35.4277 329.001 35.644 328.847 35.93C328.701 36.216 328.627 36.5717 328.627 36.997V40H327.571V34.17H328.583V35.743L328.418 35.325C328.609 34.9437 328.902 34.6467 329.298 34.434C329.694 34.2213 330.156 34.115 330.684 34.115ZM343.689 32.3H344.789V40H343.689V32.3ZM339.267 40H338.167V32.3H339.267V40ZM343.788 36.568H339.157V35.611H343.788V36.568ZM350.558 40V38.768L350.503 38.537V36.436C350.503 35.9887 350.371 35.644 350.107 35.402C349.851 35.1527 349.462 35.028 348.941 35.028C348.597 35.028 348.259 35.0867 347.929 35.204C347.599 35.314 347.321 35.4643 347.093 35.655L346.653 34.863C346.954 34.621 347.313 34.4377 347.731 34.313C348.157 34.181 348.6 34.115 349.062 34.115C349.862 34.115 350.478 34.3093 350.91 34.698C351.343 35.0867 351.559 35.6807 351.559 36.48V40H350.558ZM348.644 40.066C348.212 40.066 347.83 39.9927 347.5 39.846C347.178 39.6993 346.928 39.4977 346.752 39.241C346.576 38.977 346.488 38.68 346.488 38.35C346.488 38.0347 346.562 37.7487 346.708 37.492C346.862 37.2353 347.108 37.03 347.445 36.876C347.79 36.722 348.252 36.645 348.831 36.645H350.679V37.404H348.875C348.347 37.404 347.992 37.492 347.808 37.668C347.625 37.844 347.533 38.0567 347.533 38.306C347.533 38.592 347.647 38.823 347.874 38.999C348.102 39.1677 348.417 39.252 348.82 39.252C349.216 39.252 349.561 39.164 349.854 38.988C350.155 38.812 350.371 38.5553 350.503 38.218L350.712 38.944C350.573 39.2887 350.327 39.5637 349.975 39.769C349.623 39.967 349.18 40.066 348.644 40.066ZM360.807 34.115C361.276 34.115 361.69 34.2067 362.05 34.39C362.409 34.5733 362.688 34.852 362.886 35.226C363.091 35.6 363.194 36.073 363.194 36.645V40H362.138V36.766C362.138 36.2013 362.006 35.776 361.742 35.49C361.478 35.204 361.107 35.061 360.631 35.061C360.279 35.061 359.971 35.1343 359.707 35.281C359.443 35.4277 359.237 35.644 359.091 35.93C358.951 36.216 358.882 36.5717 358.882 36.997V40H357.826V36.766C357.826 36.2013 357.694 35.776 357.43 35.49C357.173 35.204 356.803 35.061 356.319 35.061C355.974 35.061 355.67 35.1343 355.406 35.281C355.142 35.4277 354.936 35.644 354.79 35.93C354.643 36.216 354.57 36.5717 354.57 36.997V40H353.514V34.17H354.526V35.721L354.361 35.325C354.544 34.9437 354.826 34.6467 355.208 34.434C355.589 34.2213 356.033 34.115 356.539 34.115C357.096 34.115 357.576 34.2543 357.98 34.533C358.383 34.8043 358.647 35.2187 358.772 35.776L358.343 35.6C358.519 35.1527 358.827 34.7933 359.267 34.522C359.707 34.2507 360.22 34.115 360.807 34.115ZM372.43 34.115C372.899 34.115 373.313 34.2067 373.673 34.39C374.032 34.5733 374.311 34.852 374.509 35.226C374.714 35.6 374.817 36.073 374.817 36.645V40H373.761V36.766C373.761 36.2013 373.629 35.776 373.365 35.49C373.101 35.204 372.73 35.061 372.254 35.061C371.902 35.061 371.594 35.1343 371.33 35.281C371.066 35.4277 370.86 35.644 370.714 35.93C370.574 36.216 370.505 36.5717 370.505 36.997V40H369.449V36.766C369.449 36.2013 369.317 35.776 369.053 35.49C368.796 35.204 368.426 35.061 367.942 35.061C367.597 35.061 367.293 35.1343 367.029 35.281C366.765 35.4277 366.559 35.644 366.413 35.93C366.266 36.216 366.193 36.5717 366.193 36.997V40H365.137V34.17H366.149V35.721L365.984 35.325C366.167 34.9437 366.449 34.6467 366.831 34.434C367.212 34.2213 367.656 34.115 368.162 34.115C368.719 34.115 369.199 34.2543 369.603 34.533C370.006 34.8043 370.27 35.2187 370.395 35.776L369.966 35.6C370.142 35.1527 370.45 34.7933 370.89 34.522C371.33 34.2507 371.843 34.115 372.43 34.115Z" fill="black"/>
</svg>
