<svg width="52" height="52" viewBox="0 0 52 52" fill="none" xmlns="http://www.w3.org/2000/svg">
<path d="M23.8333 25.7833V36.8333C23.8333 37.408 24.0616 37.9591 24.4679 38.3654C24.8743 38.7717 25.4254 39 26 39C26.5746 39 27.1257 38.7717 27.5321 38.3654C27.9384 37.9591 28.1667 37.408 28.1667 36.8333V25.7833C30.7971 25.2464 33.1345 23.7519 34.7256 21.5896C36.3167 19.4272 37.0483 16.7511 36.7785 14.08C36.5086 11.409 35.2566 8.93322 33.2652 7.1328C31.2737 5.33238 28.6847 4.33554 26 4.33554C23.3153 4.33554 20.7263 5.33238 18.7348 7.1328C16.7434 8.93322 15.4914 11.409 15.2215 14.08C14.9517 16.7511 15.6833 19.4272 17.2744 21.5896C18.8655 23.7519 21.2029 25.2464 23.8333 25.7833ZM26 8.66666C27.2856 8.66666 28.5423 9.04788 29.6112 9.76211C30.6801 10.4763 31.5132 11.4915 32.0052 12.6792C32.4972 13.8669 32.6259 15.1739 32.3751 16.4348C32.1243 17.6956 31.5052 18.8538 30.5962 19.7629C29.6872 20.6719 28.529 21.291 27.2681 21.5418C26.0072 21.7926 24.7003 21.6639 23.5126 21.1719C22.3248 20.6799 21.3097 19.8468 20.5954 18.7779C19.8812 17.709 19.5 16.4522 19.5 15.1667C19.5 13.4428 20.1848 11.7895 21.4038 10.5705C22.6228 9.35148 24.2761 8.66666 26 8.66666V8.66666ZM35.1217 31.2433C34.8371 31.1836 34.5436 31.1805 34.2579 31.2341C33.9721 31.2878 33.6998 31.3973 33.4563 31.5562C33.2129 31.7151 33.0031 31.9205 32.839 32.1605C32.675 32.4005 32.5598 32.6705 32.5 32.955C32.4402 33.2395 32.4371 33.533 32.4908 33.8188C32.5445 34.1045 32.6539 34.3769 32.8129 34.6203C32.9718 34.8638 33.1771 35.0735 33.4172 35.2376C33.6572 35.4017 33.9271 35.5169 34.2117 35.5767C39.13 36.5517 41.1667 38.3067 41.1667 39C41.1667 40.2567 35.8583 43.3333 26 43.3333C16.1417 43.3333 10.8333 40.2567 10.8333 39C10.8333 38.3067 12.87 36.5517 17.7883 35.49C18.0729 35.4302 18.3428 35.315 18.5828 35.1509C18.8229 34.9869 19.0282 34.7771 19.1871 34.5337C19.3461 34.2902 19.4555 34.0179 19.5092 33.7321C19.5629 33.4464 19.5598 33.1529 19.5 32.8683C19.4402 32.5838 19.325 32.3138 19.161 32.0738C18.9969 31.8338 18.7871 31.6285 18.5437 31.4695C18.3002 31.3106 18.0279 31.2012 17.7421 31.1475C17.4564 31.0938 17.1629 31.0969 16.8783 31.1567C10.2917 32.6733 6.5 35.5117 6.5 39C6.5 44.6983 16.315 47.6667 26 47.6667C35.685 47.6667 45.5 44.6983 45.5 39C45.5 35.5117 41.7083 32.6733 35.1217 31.2433Z" fill="#FF0505"/>
</svg>
