<svg viewBox="0 0 1738 713" fill="none" xmlns="http://www.w3.org/2000/svg">
<rect width="1738" height="650" fill="white"/>
<path d="M277.752 541.384C274.381 541.384 271.267 540.829 268.408 539.72C265.549 538.568 263.075 536.968 260.984 534.92C258.893 532.872 257.251 530.461 256.056 527.688C254.904 524.915 254.328 521.885 254.328 518.6C254.328 515.315 254.904 512.285 256.056 509.512C257.251 506.739 258.893 504.328 260.984 502.28C263.117 500.232 265.613 498.653 268.472 497.544C271.331 496.392 274.445 495.816 277.816 495.816C281.059 495.816 284.109 496.371 286.968 497.48C289.827 498.547 292.237 500.168 294.2 502.344L291.192 505.352C289.357 503.475 287.331 502.131 285.112 501.32C282.893 500.467 280.504 500.04 277.944 500.04C275.256 500.04 272.76 500.509 270.456 501.448C268.152 502.344 266.147 503.645 264.44 505.352C262.733 507.016 261.389 508.979 260.408 511.24C259.469 513.459 259 515.912 259 518.6C259 521.288 259.469 523.763 260.408 526.024C261.389 528.243 262.733 530.205 264.44 531.912C266.147 533.576 268.152 534.877 270.456 535.816C272.76 536.712 275.256 537.16 277.944 537.16C280.504 537.16 282.893 536.733 285.112 535.88C287.331 535.027 289.357 533.661 291.192 531.784L294.2 534.792C292.237 536.968 289.827 538.611 286.968 539.72C284.109 540.829 281.037 541.384 277.752 541.384ZM320.488 507.08C323.219 507.08 325.608 507.613 327.656 508.68C329.747 509.704 331.368 511.283 332.52 513.416C333.715 515.549 334.312 518.237 334.312 521.48V541H329.768V521.928C329.768 518.387 328.872 515.72 327.08 513.928C325.331 512.093 322.856 511.176 319.656 511.176C317.267 511.176 315.176 511.667 313.384 512.648C311.635 513.587 310.269 514.973 309.288 516.808C308.349 518.6 307.88 520.776 307.88 523.336V541H303.336V493.512H307.88V516.616L306.984 514.888C308.051 512.456 309.757 510.557 312.104 509.192C314.451 507.784 317.245 507.08 320.488 507.08ZM360.858 541.32C357.359 541.32 354.287 540.595 351.642 539.144C348.997 537.651 346.927 535.624 345.434 533.064C343.941 530.461 343.194 527.496 343.194 524.168C343.194 520.84 343.898 517.896 345.306 515.336C346.757 512.776 348.719 510.771 351.194 509.32C353.711 507.827 356.527 507.08 359.642 507.08C362.799 507.08 365.594 507.805 368.026 509.256C370.501 510.664 372.442 512.669 373.85 515.272C375.258 517.832 375.962 520.797 375.962 524.168C375.962 524.381 375.941 524.616 375.898 524.872C375.898 525.085 375.898 525.32 375.898 525.576H346.65V522.184H373.466L371.674 523.528C371.674 521.096 371.141 518.941 370.074 517.064C369.05 515.144 367.642 513.651 365.85 512.584C364.058 511.517 361.989 510.984 359.642 510.984C357.338 510.984 355.269 511.517 353.434 512.584C351.599 513.651 350.17 515.144 349.146 517.064C348.122 518.984 347.61 521.181 347.61 523.656V524.36C347.61 526.92 348.165 529.181 349.274 531.144C350.426 533.064 352.005 534.579 354.01 535.688C356.058 536.755 358.383 537.288 360.986 537.288C363.034 537.288 364.933 536.925 366.682 536.2C368.474 535.475 370.01 534.365 371.29 532.872L373.85 535.816C372.357 537.608 370.479 538.973 368.218 539.912C365.999 540.851 363.546 541.32 360.858 541.32ZM399.163 541.32C395.835 541.32 392.848 540.595 390.203 539.144C387.6 537.651 385.552 535.624 384.059 533.064C382.566 530.461 381.819 527.496 381.819 524.168C381.819 520.797 382.566 517.832 384.059 515.272C385.552 512.712 387.6 510.707 390.203 509.256C392.848 507.805 395.835 507.08 399.163 507.08C402.022 507.08 404.603 507.635 406.907 508.744C409.211 509.853 411.024 511.517 412.347 513.736L408.955 516.04C407.803 514.333 406.374 513.075 404.667 512.264C402.96 511.453 401.104 511.048 399.099 511.048C396.71 511.048 394.555 511.603 392.635 512.712C390.715 513.779 389.2 515.293 388.091 517.256C386.982 519.219 386.427 521.523 386.427 524.168C386.427 526.813 386.982 529.117 388.091 531.08C389.2 533.043 390.715 534.579 392.635 535.688C394.555 536.755 396.71 537.288 399.099 537.288C401.104 537.288 402.96 536.883 404.667 536.072C406.374 535.261 407.803 534.024 408.955 532.36L412.347 534.664C411.024 536.84 409.211 538.504 406.907 539.656C404.603 540.765 402.022 541.32 399.163 541.32ZM424.358 532.296L424.486 526.472L445.414 507.4H450.982L436.198 521.544L433.638 523.72L424.358 532.296ZM420.774 541V493.512H425.318V541H420.774ZM446.822 541L432.806 523.528L435.75 520.008L452.39 541H446.822ZM471.595 541.32C468.352 541.32 465.429 540.595 462.827 539.144C460.267 537.651 458.24 535.624 456.747 533.064C455.253 530.461 454.507 527.496 454.507 524.168C454.507 520.797 455.253 517.832 456.747 515.272C458.24 512.712 460.267 510.707 462.827 509.256C465.387 507.805 468.309 507.08 471.595 507.08C474.923 507.08 477.867 507.805 480.427 509.256C483.029 510.707 485.056 512.712 486.507 515.272C488 517.832 488.747 520.797 488.747 524.168C488.747 527.496 488 530.461 486.507 533.064C485.056 535.624 483.029 537.651 480.427 539.144C477.824 540.595 474.88 541.32 471.595 541.32ZM471.595 537.288C474.027 537.288 476.181 536.755 478.059 535.688C479.936 534.579 481.408 533.043 482.475 531.08C483.584 529.075 484.139 526.771 484.139 524.168C484.139 521.523 483.584 519.219 482.475 517.256C481.408 515.293 479.936 513.779 478.059 512.712C476.181 511.603 474.048 511.048 471.659 511.048C469.269 511.048 467.136 511.603 465.259 512.712C463.381 513.779 461.888 515.293 460.779 517.256C459.669 519.219 459.115 521.523 459.115 524.168C459.115 526.771 459.669 529.075 460.779 531.08C461.888 533.043 463.381 534.579 465.259 535.688C467.136 536.755 469.248 537.288 471.595 537.288ZM511.912 541.32C509.053 541.32 506.557 540.787 504.424 539.72C502.29 538.653 500.626 537.053 499.432 534.92C498.28 532.787 497.704 530.12 497.704 526.92V507.4H502.248V526.408C502.248 529.992 503.122 532.701 504.872 534.536C506.664 536.328 509.16 537.224 512.36 537.224C514.706 537.224 516.733 536.755 518.44 535.816C520.189 534.835 521.512 533.427 522.408 531.592C523.346 529.757 523.816 527.56 523.816 525V507.4H528.36V541H524.007V531.784L524.712 533.448C523.645 535.923 521.981 537.864 519.72 539.272C517.501 540.637 514.898 541.32 511.912 541.32ZM551.648 541.32C548.49 541.32 546.058 540.467 544.352 538.76C542.645 537.053 541.792 534.643 541.792 531.528V499.976H546.336V531.272C546.336 533.235 546.826 534.749 547.808 535.816C548.832 536.883 550.282 537.416 552.16 537.416C554.165 537.416 555.829 536.84 557.152 535.688L558.752 538.952C557.856 539.763 556.768 540.36 555.488 540.744C554.25 541.128 552.97 541.32 551.648 541.32ZM535.776 511.176V507.4H556.576V511.176H535.776ZM592.798 541.32C590.024 541.32 587.4 540.936 584.926 540.168C582.451 539.357 580.51 538.355 579.102 537.16L581.15 533.576C582.515 534.6 584.264 535.496 586.398 536.264C588.531 536.989 590.771 537.352 593.118 537.352C596.318 537.352 598.622 536.861 600.03 535.88C601.438 534.856 602.142 533.512 602.142 531.848C602.142 530.611 601.736 529.651 600.926 528.968C600.158 528.243 599.134 527.709 597.854 527.368C596.574 526.984 595.144 526.664 593.566 526.408C591.987 526.152 590.408 525.853 588.83 525.512C587.294 525.171 585.886 524.68 584.606 524.04C583.326 523.357 582.28 522.44 581.47 521.288C580.702 520.136 580.318 518.6 580.318 516.68C580.318 514.845 580.83 513.203 581.854 511.752C582.878 510.301 584.371 509.171 586.334 508.36C588.339 507.507 590.771 507.08 593.63 507.08C595.806 507.08 597.982 507.379 600.158 507.976C602.334 508.531 604.126 509.277 605.534 510.216L603.55 513.864C602.056 512.84 600.456 512.115 598.75 511.688C597.043 511.219 595.336 510.984 593.63 510.984C590.6 510.984 588.36 511.517 586.91 512.584C585.502 513.608 584.798 514.931 584.798 516.552C584.798 517.832 585.182 518.835 585.95 519.56C586.76 520.285 587.806 520.861 589.086 521.288C590.408 521.672 591.838 521.992 593.374 522.248C594.952 522.504 596.51 522.824 598.046 523.208C599.624 523.549 601.054 524.04 602.334 524.68C603.656 525.277 604.702 526.152 605.47 527.304C606.28 528.413 606.686 529.885 606.686 531.72C606.686 533.683 606.131 535.389 605.022 536.84C603.955 538.248 602.376 539.357 600.286 540.168C598.238 540.936 595.742 541.32 592.798 541.32ZM628.72 541.32C625.477 541.32 622.554 540.595 619.952 539.144C617.392 537.651 615.365 535.624 613.872 533.064C612.378 530.461 611.632 527.496 611.632 524.168C611.632 520.797 612.378 517.832 613.872 515.272C615.365 512.712 617.392 510.707 619.952 509.256C622.512 507.805 625.434 507.08 628.72 507.08C632.048 507.08 634.992 507.805 637.552 509.256C640.154 510.707 642.181 512.712 643.632 515.272C645.125 517.832 645.872 520.797 645.872 524.168C645.872 527.496 645.125 530.461 643.632 533.064C642.181 535.624 640.154 537.651 637.552 539.144C634.949 540.595 632.005 541.32 628.72 541.32ZM628.72 537.288C631.152 537.288 633.306 536.755 635.184 535.688C637.061 534.579 638.533 533.043 639.6 531.08C640.709 529.075 641.264 526.771 641.264 524.168C641.264 521.523 640.709 519.219 639.6 517.256C638.533 515.293 637.061 513.779 635.184 512.712C633.306 511.603 631.173 511.048 628.784 511.048C626.394 511.048 624.261 511.603 622.384 512.712C620.506 513.779 619.013 515.293 617.904 517.256C616.794 519.219 616.24 521.523 616.24 524.168C616.24 526.771 616.794 529.075 617.904 531.08C619.013 533.043 620.506 534.579 622.384 535.688C624.261 536.755 626.373 537.288 628.72 537.288ZM697.133 507.08C699.863 507.08 702.231 507.613 704.237 508.68C706.285 509.704 707.863 511.283 708.973 513.416C710.125 515.549 710.701 518.237 710.701 521.48V541H706.157V521.928C706.157 518.387 705.303 515.72 703.597 513.928C701.933 512.093 699.565 511.176 696.493 511.176C694.189 511.176 692.183 511.667 690.477 512.648C688.813 513.587 687.511 514.973 686.573 516.808C685.677 518.6 685.229 520.776 685.229 523.336V541H680.685V521.928C680.685 518.387 679.831 515.72 678.125 513.928C676.418 512.093 674.029 511.176 670.957 511.176C668.695 511.176 666.711 511.667 665.005 512.648C663.298 513.587 661.975 514.973 661.037 516.808C660.141 518.6 659.693 520.776 659.693 523.336V541H655.149V507.4H659.501V516.488L658.797 514.888C659.821 512.456 661.463 510.557 663.725 509.192C666.029 507.784 668.738 507.08 671.853 507.08C675.138 507.08 677.933 507.912 680.237 509.576C682.541 511.197 684.034 513.651 684.717 516.936L682.925 516.232C683.906 513.501 685.634 511.304 688.109 509.64C690.626 507.933 693.634 507.08 697.133 507.08ZM737.296 541.32C733.797 541.32 730.725 540.595 728.08 539.144C725.434 537.651 723.365 535.624 721.872 533.064C720.378 530.461 719.632 527.496 719.632 524.168C719.632 520.84 720.336 517.896 721.744 515.336C723.194 512.776 725.157 510.771 727.632 509.32C730.149 507.827 732.965 507.08 736.08 507.08C739.237 507.08 742.032 507.805 744.464 509.256C746.938 510.664 748.88 512.669 750.288 515.272C751.696 517.832 752.4 520.797 752.4 524.168C752.4 524.381 752.378 524.616 752.336 524.872C752.336 525.085 752.336 525.32 752.336 525.576H723.088V522.184H749.904L748.112 523.528C748.112 521.096 747.578 518.941 746.512 517.064C745.488 515.144 744.08 513.651 742.288 512.584C740.496 511.517 738.426 510.984 736.08 510.984C733.776 510.984 731.706 511.517 729.872 512.584C728.037 513.651 726.608 515.144 725.584 517.064C724.56 518.984 724.048 521.181 724.048 523.656V524.36C724.048 526.92 724.602 529.181 725.712 531.144C726.864 533.064 728.442 534.579 730.448 535.688C732.496 536.755 734.821 537.288 737.424 537.288C739.472 537.288 741.37 536.925 743.12 536.2C744.912 535.475 746.448 534.365 747.728 532.872L750.288 535.816C748.794 537.608 746.917 538.973 744.656 539.912C742.437 540.851 739.984 541.32 737.296 541.32ZM792.095 541.32C788.852 541.32 785.929 540.595 783.327 539.144C780.767 537.651 778.74 535.624 777.247 533.064C775.753 530.461 775.007 527.496 775.007 524.168C775.007 520.797 775.753 517.832 777.247 515.272C778.74 512.712 780.767 510.707 783.327 509.256C785.887 507.805 788.809 507.08 792.095 507.08C795.423 507.08 798.367 507.805 800.927 509.256C803.529 510.707 805.556 512.712 807.007 515.272C808.5 517.832 809.247 520.797 809.247 524.168C809.247 527.496 808.5 530.461 807.007 533.064C805.556 535.624 803.529 537.651 800.927 539.144C798.324 540.595 795.38 541.32 792.095 541.32ZM792.095 537.288C794.527 537.288 796.681 536.755 798.559 535.688C800.436 534.579 801.908 533.043 802.975 531.08C804.084 529.075 804.639 526.771 804.639 524.168C804.639 521.523 804.084 519.219 802.975 517.256C801.908 515.293 800.436 513.779 798.559 512.712C796.681 511.603 794.548 511.048 792.159 511.048C789.769 511.048 787.636 511.603 785.759 512.712C783.881 513.779 782.388 515.293 781.279 517.256C780.169 519.219 779.615 521.523 779.615 524.168C779.615 526.771 780.169 529.075 781.279 531.08C782.388 533.043 783.881 534.579 785.759 535.688C787.636 536.755 789.748 537.288 792.095 537.288ZM819.292 541V503.176C819.292 500.189 820.166 497.779 821.916 495.944C823.665 494.109 826.182 493.192 829.468 493.192C830.748 493.192 831.985 493.363 833.18 493.704C834.374 494.045 835.377 494.579 836.188 495.304L834.652 498.696C834.012 498.141 833.265 497.736 832.412 497.48C831.558 497.181 830.641 497.032 829.66 497.032C827.74 497.032 826.268 497.565 825.244 498.632C824.22 499.699 823.708 501.277 823.708 503.368V508.488L823.836 510.6V541H819.292ZM813.276 511.176V507.4H834.076V511.176H813.276ZM898.945 507.08C901.676 507.08 904.044 507.613 906.049 508.68C908.097 509.704 909.676 511.283 910.785 513.416C911.937 515.549 912.513 518.237 912.513 521.48V541H907.969V521.928C907.969 518.387 907.116 515.72 905.409 513.928C903.745 512.093 901.377 511.176 898.305 511.176C896.001 511.176 893.996 511.667 892.289 512.648C890.625 513.587 889.324 514.973 888.385 516.808C887.489 518.6 887.041 520.776 887.041 523.336V541H882.497V521.928C882.497 518.387 881.644 515.72 879.937 513.928C878.23 512.093 875.841 511.176 872.769 511.176C870.508 511.176 868.524 511.667 866.817 512.648C865.11 513.587 863.788 514.973 862.849 516.808C861.953 518.6 861.505 520.776 861.505 523.336V541H856.961V507.4H861.313V516.488L860.609 514.888C861.633 512.456 863.276 510.557 865.537 509.192C867.841 507.784 870.55 507.08 873.665 507.08C876.95 507.08 879.745 507.912 882.049 509.576C884.353 511.197 885.846 513.651 886.529 516.936L884.737 516.232C885.718 513.501 887.446 511.304 889.921 509.64C892.438 507.933 895.446 507.08 898.945 507.08ZM924.467 553.736C922.888 553.736 921.374 553.48 919.923 552.968C918.515 552.456 917.299 551.688 916.275 550.664L918.387 547.272C919.24 548.083 920.158 548.701 921.139 549.128C922.163 549.597 923.294 549.832 924.531 549.832C926.024 549.832 927.304 549.405 928.371 548.552C929.48 547.741 930.526 546.291 931.507 544.2L933.683 539.272L934.195 538.568L948.019 507.4H952.499L935.667 545.032C934.728 547.208 933.683 548.936 932.531 550.216C931.422 551.496 930.206 552.392 928.883 552.904C927.56 553.459 926.088 553.736 924.467 553.736ZM933.427 541.96L917.939 507.4H922.675L936.371 538.248L933.427 541.96ZM989.025 541.32C985.825 541.32 982.945 540.595 980.385 539.144C977.867 537.693 975.883 535.688 974.433 533.128C972.982 530.525 972.257 527.539 972.257 524.168C972.257 520.755 972.982 517.768 974.433 515.208C975.883 512.648 977.867 510.664 980.385 509.256C982.945 507.805 985.825 507.08 989.025 507.08C991.969 507.08 994.593 507.741 996.897 509.064C999.243 510.387 1001.1 512.328 1002.46 514.888C1003.87 517.405 1004.58 520.499 1004.58 524.168C1004.58 527.795 1003.89 530.888 1002.53 533.448C1001.16 536.008 999.307 537.971 996.961 539.336C994.657 540.659 992.011 541.32 989.025 541.32ZM989.345 537.288C991.734 537.288 993.867 536.755 995.745 535.688C997.665 534.579 999.158 533.043 1000.22 531.08C1001.33 529.075 1001.89 526.771 1001.89 524.168C1001.89 521.523 1001.33 519.219 1000.22 517.256C999.158 515.293 997.665 513.779 995.745 512.712C993.867 511.603 991.734 511.048 989.345 511.048C986.998 511.048 984.886 511.603 983.009 512.712C981.131 513.779 979.638 515.293 978.529 517.256C977.419 519.219 976.865 521.523 976.865 524.168C976.865 526.771 977.419 529.075 978.529 531.08C979.638 533.043 981.131 534.579 983.009 535.688C984.886 536.755 986.998 537.288 989.345 537.288ZM1002.02 541V530.888L1002.46 524.104L1001.82 517.32V493.512H1006.37V541H1002.02ZM1033.3 541.32C1029.8 541.32 1026.72 540.595 1024.08 539.144C1021.43 537.651 1019.36 535.624 1017.87 533.064C1016.38 530.461 1015.63 527.496 1015.63 524.168C1015.63 520.84 1016.34 517.896 1017.74 515.336C1019.19 512.776 1021.16 510.771 1023.63 509.32C1026.15 507.827 1028.96 507.08 1032.08 507.08C1035.24 507.08 1038.03 507.805 1040.46 509.256C1042.94 510.664 1044.88 512.669 1046.29 515.272C1047.7 517.832 1048.4 520.797 1048.4 524.168C1048.4 524.381 1048.38 524.616 1048.34 524.872C1048.34 525.085 1048.34 525.32 1048.34 525.576H1019.09V522.184H1045.9L1044.11 523.528C1044.11 521.096 1043.58 518.941 1042.51 517.064C1041.49 515.144 1040.08 513.651 1038.29 512.584C1036.5 511.517 1034.43 510.984 1032.08 510.984C1029.78 510.984 1027.71 511.517 1025.87 512.584C1024.04 513.651 1022.61 515.144 1021.58 517.064C1020.56 518.984 1020.05 521.181 1020.05 523.656V524.36C1020.05 526.92 1020.6 529.181 1021.71 531.144C1022.86 533.064 1024.44 534.579 1026.45 535.688C1028.5 536.755 1030.82 537.288 1033.42 537.288C1035.47 537.288 1037.37 536.925 1039.12 536.2C1040.91 535.475 1042.45 534.365 1043.73 532.872L1046.29 535.816C1044.79 537.608 1042.92 538.973 1040.66 539.912C1038.44 540.851 1035.98 541.32 1033.3 541.32ZM1066.67 541.32C1063.9 541.32 1061.28 540.936 1058.8 540.168C1056.33 539.357 1054.38 538.355 1052.98 537.16L1055.02 533.576C1056.39 534.6 1058.14 535.496 1060.27 536.264C1062.41 536.989 1064.65 537.352 1066.99 537.352C1070.19 537.352 1072.5 536.861 1073.9 535.88C1075.31 534.856 1076.02 533.512 1076.02 531.848C1076.02 530.611 1075.61 529.651 1074.8 528.968C1074.03 528.243 1073.01 527.709 1071.73 527.368C1070.45 526.984 1069.02 526.664 1067.44 526.408C1065.86 526.152 1064.28 525.853 1062.7 525.512C1061.17 525.171 1059.76 524.68 1058.48 524.04C1057.2 523.357 1056.16 522.44 1055.34 521.288C1054.58 520.136 1054.19 518.6 1054.19 516.68C1054.19 514.845 1054.7 513.203 1055.73 511.752C1056.75 510.301 1058.25 509.171 1060.21 508.36C1062.21 507.507 1064.65 507.08 1067.5 507.08C1069.68 507.08 1071.86 507.379 1074.03 507.976C1076.21 508.531 1078 509.277 1079.41 510.216L1077.42 513.864C1075.93 512.84 1074.33 512.115 1072.62 511.688C1070.92 511.219 1069.21 510.984 1067.5 510.984C1064.48 510.984 1062.24 511.517 1060.78 512.584C1059.38 513.608 1058.67 514.931 1058.67 516.552C1058.67 517.832 1059.06 518.835 1059.82 519.56C1060.64 520.285 1061.68 520.861 1062.96 521.288C1064.28 521.672 1065.71 521.992 1067.25 522.248C1068.83 522.504 1070.38 522.824 1071.92 523.208C1073.5 523.549 1074.93 524.04 1076.21 524.68C1077.53 525.277 1078.58 526.152 1079.34 527.304C1080.16 528.413 1080.56 529.885 1080.56 531.72C1080.56 533.683 1080.01 535.389 1078.9 536.84C1077.83 538.248 1076.25 539.357 1074.16 540.168C1072.11 540.936 1069.62 541.32 1066.67 541.32ZM1088.9 541V507.4H1093.44V541H1088.9ZM1091.2 499.976C1090.26 499.976 1089.47 499.656 1088.83 499.016C1088.19 498.376 1087.87 497.608 1087.87 496.712C1087.87 495.816 1088.19 495.069 1088.83 494.472C1089.47 493.832 1090.26 493.512 1091.2 493.512C1092.14 493.512 1092.93 493.811 1093.57 494.408C1094.21 495.005 1094.53 495.752 1094.53 496.648C1094.53 497.587 1094.21 498.376 1093.57 499.016C1092.97 499.656 1092.18 499.976 1091.2 499.976ZM1120.42 553.736C1117.35 553.736 1114.41 553.288 1111.59 552.392C1108.77 551.496 1106.49 550.216 1104.74 548.552L1107.05 545.096C1108.62 546.504 1110.57 547.613 1112.87 548.424C1115.22 549.277 1117.69 549.704 1120.29 549.704C1124.56 549.704 1127.7 548.701 1129.7 546.696C1131.71 544.733 1132.71 541.661 1132.71 537.48V529.096L1133.35 523.336L1132.9 517.576V507.4H1137.25V536.904C1137.25 542.707 1135.82 546.952 1132.97 549.64C1130.15 552.371 1125.97 553.736 1120.42 553.736ZM1119.59 539.72C1116.39 539.72 1113.51 539.037 1110.95 537.672C1108.39 536.264 1106.36 534.323 1104.87 531.848C1103.42 529.373 1102.69 526.536 1102.69 523.336C1102.69 520.136 1103.42 517.32 1104.87 514.888C1106.36 512.413 1108.39 510.493 1110.95 509.128C1113.51 507.763 1116.39 507.08 1119.59 507.08C1122.58 507.08 1125.26 507.699 1127.65 508.936C1130.04 510.173 1131.94 512.008 1133.35 514.44C1134.76 516.872 1135.46 519.837 1135.46 523.336C1135.46 526.835 1134.76 529.8 1133.35 532.232C1131.94 534.664 1130.04 536.52 1127.65 537.8C1125.26 539.08 1122.58 539.72 1119.59 539.72ZM1120.04 535.688C1122.51 535.688 1124.71 535.176 1126.63 534.152C1128.55 533.085 1130.06 531.635 1131.17 529.8C1132.28 527.923 1132.84 525.768 1132.84 523.336C1132.84 520.904 1132.28 518.771 1131.17 516.936C1130.06 515.101 1128.55 513.672 1126.63 512.648C1124.71 511.581 1122.51 511.048 1120.04 511.048C1117.61 511.048 1115.41 511.581 1113.45 512.648C1111.53 513.672 1110.01 515.101 1108.9 516.936C1107.84 518.771 1107.3 520.904 1107.3 523.336C1107.3 525.768 1107.84 527.923 1108.9 529.8C1110.01 531.635 1111.53 533.085 1113.45 534.152C1115.41 535.176 1117.61 535.688 1120.04 535.688ZM1167.05 507.08C1169.78 507.08 1172.17 507.613 1174.22 508.68C1176.31 509.704 1177.93 511.283 1179.08 513.416C1180.28 515.549 1180.87 518.237 1180.87 521.48V541H1176.33V521.928C1176.33 518.387 1175.43 515.72 1173.64 513.928C1171.89 512.093 1169.42 511.176 1166.22 511.176C1163.83 511.176 1161.74 511.667 1159.95 512.648C1158.2 513.587 1156.83 514.973 1155.85 516.808C1154.91 518.6 1154.44 520.776 1154.44 523.336V541H1149.9V507.4H1154.25V516.616L1153.55 514.888C1154.61 512.456 1156.32 510.557 1158.67 509.192C1161.01 507.784 1163.81 507.08 1167.05 507.08ZM1202.17 541.32C1199.4 541.32 1196.78 540.936 1194.3 540.168C1191.83 539.357 1189.88 538.355 1188.48 537.16L1190.52 533.576C1191.89 534.6 1193.64 535.496 1195.77 536.264C1197.91 536.989 1200.15 537.352 1202.49 537.352C1205.69 537.352 1208 536.861 1209.4 535.88C1210.81 534.856 1211.52 533.512 1211.52 531.848C1211.52 530.611 1211.11 529.651 1210.3 528.968C1209.53 528.243 1208.51 527.709 1207.23 527.368C1205.95 526.984 1204.52 526.664 1202.94 526.408C1201.36 526.152 1199.78 525.853 1198.2 525.512C1196.67 525.171 1195.26 524.68 1193.98 524.04C1192.7 523.357 1191.66 522.44 1190.84 521.288C1190.08 520.136 1189.69 518.6 1189.69 516.68C1189.69 514.845 1190.2 513.203 1191.23 511.752C1192.25 510.301 1193.75 509.171 1195.71 508.36C1197.71 507.507 1200.15 507.08 1203 507.08C1205.18 507.08 1207.36 507.379 1209.53 507.976C1211.71 508.531 1213.5 509.277 1214.91 510.216L1212.92 513.864C1211.43 512.84 1209.83 512.115 1208.12 511.688C1206.42 511.219 1204.71 510.984 1203 510.984C1199.98 510.984 1197.74 511.517 1196.28 512.584C1194.88 513.608 1194.17 514.931 1194.17 516.552C1194.17 517.832 1194.56 518.835 1195.32 519.56C1196.14 520.285 1197.18 520.861 1198.46 521.288C1199.78 521.672 1201.21 521.992 1202.75 522.248C1204.33 522.504 1205.88 522.824 1207.42 523.208C1209 523.549 1210.43 524.04 1211.71 524.68C1213.03 525.277 1214.08 526.152 1214.84 527.304C1215.66 528.413 1216.06 529.885 1216.06 531.72C1216.06 533.683 1215.51 535.389 1214.4 536.84C1213.33 538.248 1211.75 539.357 1209.66 540.168C1207.61 540.936 1205.12 541.32 1202.17 541.32ZM1258.49 541.32C1255.55 541.32 1252.9 540.659 1250.56 539.336C1248.21 537.971 1246.35 536.008 1244.99 533.448C1243.62 530.888 1242.94 527.795 1242.94 524.168C1242.94 520.499 1243.62 517.405 1244.99 514.888C1246.4 512.328 1248.27 510.387 1250.62 509.064C1252.97 507.741 1255.59 507.08 1258.49 507.08C1261.69 507.08 1264.55 507.805 1267.07 509.256C1269.63 510.664 1271.63 512.648 1273.08 515.208C1274.54 517.768 1275.26 520.755 1275.26 524.168C1275.26 527.539 1274.54 530.525 1273.08 533.128C1271.63 535.688 1269.63 537.693 1267.07 539.144C1264.55 540.595 1261.69 541.32 1258.49 541.32ZM1241.15 541V493.512H1245.69V517.32L1245.05 524.104L1245.5 530.888V541H1241.15ZM1258.17 537.288C1260.56 537.288 1262.7 536.755 1264.57 535.688C1266.45 534.579 1267.94 533.043 1269.05 531.08C1270.16 529.075 1270.72 526.771 1270.72 524.168C1270.72 521.523 1270.16 519.219 1269.05 517.256C1267.94 515.293 1266.45 513.779 1264.57 512.712C1262.7 511.603 1260.56 511.048 1258.17 511.048C1255.78 511.048 1253.63 511.603 1251.71 512.712C1249.83 513.779 1248.34 515.293 1247.23 517.256C1246.16 519.219 1245.63 521.523 1245.63 524.168C1245.63 526.771 1246.16 529.075 1247.23 531.08C1248.34 533.043 1249.83 534.579 1251.71 535.688C1253.63 536.755 1255.78 537.288 1258.17 537.288ZM1298.8 541.32C1295.3 541.32 1292.22 540.595 1289.58 539.144C1286.93 537.651 1284.86 535.624 1283.37 533.064C1281.88 530.461 1281.13 527.496 1281.13 524.168C1281.13 520.84 1281.84 517.896 1283.24 515.336C1284.69 512.776 1286.66 510.771 1289.13 509.32C1291.65 507.827 1294.46 507.08 1297.58 507.08C1300.74 507.08 1303.53 507.805 1305.96 509.256C1308.44 510.664 1310.38 512.669 1311.79 515.272C1313.2 517.832 1313.9 520.797 1313.9 524.168C1313.9 524.381 1313.88 524.616 1313.84 524.872C1313.84 525.085 1313.84 525.32 1313.84 525.576H1284.59V522.184H1311.4L1309.61 523.528C1309.61 521.096 1309.08 518.941 1308.01 517.064C1306.99 515.144 1305.58 513.651 1303.79 512.584C1302 511.517 1299.93 510.984 1297.58 510.984C1295.28 510.984 1293.21 511.517 1291.37 512.584C1289.54 513.651 1288.11 515.144 1287.08 517.064C1286.06 518.984 1285.55 521.181 1285.55 523.656V524.36C1285.55 526.92 1286.1 529.181 1287.21 531.144C1288.36 533.064 1289.94 534.579 1291.95 535.688C1294 536.755 1296.32 537.288 1298.92 537.288C1300.97 537.288 1302.87 536.925 1304.62 536.2C1306.41 535.475 1307.95 534.365 1309.23 532.872L1311.79 535.816C1310.29 537.608 1308.42 538.973 1306.16 539.912C1303.94 540.851 1301.48 541.32 1298.8 541.32ZM1323.15 541V493.512H1327.69V541H1323.15ZM1354.03 541.32C1350.79 541.32 1347.87 540.595 1345.26 539.144C1342.7 537.651 1340.68 535.624 1339.18 533.064C1337.69 530.461 1336.94 527.496 1336.94 524.168C1336.94 520.797 1337.69 517.832 1339.18 515.272C1340.68 512.712 1342.7 510.707 1345.26 509.256C1347.82 507.805 1350.75 507.08 1354.03 507.08C1357.36 507.08 1360.3 507.805 1362.86 509.256C1365.47 510.707 1367.49 512.712 1368.94 515.272C1370.44 517.832 1371.18 520.797 1371.18 524.168C1371.18 527.496 1370.44 530.461 1368.94 533.064C1367.49 535.624 1365.47 537.651 1362.86 539.144C1360.26 540.595 1357.32 541.32 1354.03 541.32ZM1354.03 537.288C1356.46 537.288 1358.62 536.755 1360.5 535.688C1362.37 534.579 1363.85 533.043 1364.91 531.08C1366.02 529.075 1366.58 526.771 1366.58 524.168C1366.58 521.523 1366.02 519.219 1364.91 517.256C1363.85 515.293 1362.37 513.779 1360.5 512.712C1358.62 511.603 1356.49 511.048 1354.1 511.048C1351.71 511.048 1349.57 511.603 1347.7 512.712C1345.82 513.779 1344.33 515.293 1343.22 517.256C1342.11 519.219 1341.55 521.523 1341.55 524.168C1341.55 526.771 1342.11 529.075 1343.22 531.08C1344.33 533.043 1345.82 534.579 1347.7 535.688C1349.57 536.755 1351.69 537.288 1354.03 537.288ZM1386.37 541L1373.7 507.4H1378.05L1389.57 538.568H1387.59L1399.43 507.4H1403.33L1415.04 538.568H1413.06L1424.77 507.4H1428.93L1416.2 541H1411.91L1400.64 511.688H1401.99L1390.66 541H1386.37ZM1434.03 541.32C1433.1 541.32 1432.28 540.979 1431.6 540.296C1430.96 539.613 1430.64 538.781 1430.64 537.8C1430.64 536.776 1430.96 535.944 1431.6 535.304C1432.28 534.664 1433.1 534.344 1434.03 534.344C1434.97 534.344 1435.76 534.664 1436.4 535.304C1437.08 535.944 1437.43 536.776 1437.43 537.8C1437.43 538.781 1437.08 539.613 1436.4 540.296C1435.76 540.979 1434.97 541.32 1434.03 541.32Z" fill="#474747"/>
<path d="M259.272 347V285.4H270.712V347H259.272ZM339.59 347V337.496L338.974 335.472V318.84C338.974 315.613 338.006 313.12 336.07 311.36C334.134 309.541 331.201 308.632 327.27 308.632C324.63 308.632 322.019 309.043 319.438 309.864C316.915 310.685 314.774 311.829 313.014 313.296L308.702 305.288C311.225 303.352 314.217 301.915 317.678 300.976C321.198 299.979 324.835 299.48 328.59 299.48C335.395 299.48 340.646 301.123 344.342 304.408C348.097 307.635 349.974 312.651 349.974 319.456V347H339.59ZM324.806 347.616C321.286 347.616 318.206 347.029 315.566 345.856C312.926 344.624 310.873 342.952 309.406 340.84C307.998 338.669 307.294 336.235 307.294 333.536C307.294 330.896 307.91 328.52 309.142 326.408C310.433 324.296 312.515 322.624 315.39 321.392C318.265 320.16 322.078 319.544 326.83 319.544H340.47V326.848H327.622C323.867 326.848 321.345 327.464 320.054 328.696C318.763 329.869 318.118 331.336 318.118 333.096C318.118 335.091 318.91 336.675 320.494 337.848C322.078 339.021 324.278 339.608 327.094 339.608C329.793 339.608 332.198 338.992 334.31 337.76C336.481 336.528 338.035 334.709 338.974 332.304L340.822 338.904C339.766 341.661 337.859 343.803 335.102 345.328C332.403 346.853 328.971 347.616 324.806 347.616ZM423.403 299.48C427.158 299.48 430.472 300.213 433.347 301.68C436.28 303.147 438.568 305.405 440.211 308.456C441.854 311.448 442.675 315.32 442.675 320.072V347H431.675V321.48C431.675 317.315 430.766 314.205 428.947 312.152C427.128 310.099 424.518 309.072 421.115 309.072C418.71 309.072 416.568 309.6 414.691 310.656C412.872 311.712 411.435 313.267 410.379 315.32C409.382 317.373 408.883 319.984 408.883 323.152V347H397.883V321.48C397.883 317.315 396.974 314.205 395.155 312.152C393.336 310.099 390.726 309.072 387.323 309.072C384.918 309.072 382.776 309.6 380.899 310.656C379.08 311.712 377.643 313.267 376.587 315.32C375.59 317.373 375.091 319.984 375.091 323.152V347H364.091V300.008H374.563V312.504L372.715 308.808C374.299 305.757 376.587 303.44 379.579 301.856C382.63 300.272 386.091 299.48 389.963 299.48C394.363 299.48 398.176 300.565 401.403 302.736C404.688 304.907 406.859 308.192 407.915 312.592L403.603 311.096C405.128 307.576 407.651 304.76 411.171 302.648C414.691 300.536 418.768 299.48 423.403 299.48ZM510.004 347V337.496L509.388 335.472V318.84C509.388 315.613 508.42 313.12 506.484 311.36C504.548 309.541 501.615 308.632 497.684 308.632C495.044 308.632 492.433 309.043 489.852 309.864C487.329 310.685 485.188 311.829 483.428 313.296L479.116 305.288C481.639 303.352 484.631 301.915 488.092 300.976C491.612 299.979 495.249 299.48 499.004 299.48C505.809 299.48 511.06 301.123 514.756 304.408C518.511 307.635 520.388 312.651 520.388 319.456V347H510.004ZM495.22 347.616C491.7 347.616 488.62 347.029 485.98 345.856C483.34 344.624 481.287 342.952 479.82 340.84C478.412 338.669 477.708 336.235 477.708 333.536C477.708 330.896 478.324 328.52 479.556 326.408C480.847 324.296 482.929 322.624 485.804 321.392C488.679 320.16 492.492 319.544 497.244 319.544H510.884V326.848H498.036C494.281 326.848 491.759 327.464 490.468 328.696C489.177 329.869 488.532 331.336 488.532 333.096C488.532 335.091 489.324 336.675 490.908 337.848C492.492 339.021 494.692 339.608 497.508 339.608C500.207 339.608 502.612 338.992 504.724 337.76C506.895 336.528 508.449 334.709 509.388 332.304L511.236 338.904C510.18 341.661 508.273 343.803 505.516 345.328C502.817 346.853 499.385 347.616 495.22 347.616ZM586.369 347.88C577.921 347.88 571.292 345.504 566.481 340.752C561.729 336 559.353 329.136 559.353 320.16V285.4H570.793V319.72C570.793 326.056 572.143 330.661 574.841 333.536C577.599 336.411 581.471 337.848 586.457 337.848C591.444 337.848 595.287 336.411 597.985 333.536C600.684 330.661 602.033 326.056 602.033 319.72V285.4H613.297V320.16C613.297 329.136 610.892 336 606.081 340.752C601.329 345.504 594.759 347.88 586.369 347.88ZM620.98 347L646.94 311.272V319.896L622.212 285.4H635.148L653.54 310.92L648.26 311.008L666.476 285.4H678.884L654.332 319.28V311.008L680.468 347H667.268L647.908 319.896H653.1L634.004 347H620.98ZM702.883 355.8L731.923 272.904H741.779L712.739 355.8H702.883ZM797.26 347.88C788.812 347.88 782.183 345.504 777.372 340.752C772.62 336 770.244 329.136 770.244 320.16V285.4H781.684V319.72C781.684 326.056 783.033 330.661 785.732 333.536C788.489 336.411 792.361 337.848 797.348 337.848C802.335 337.848 806.177 336.411 808.876 333.536C811.575 330.661 812.924 326.056 812.924 319.72V285.4H824.188V320.16C824.188 329.136 821.783 336 816.972 340.752C812.22 345.504 805.649 347.88 797.26 347.88ZM840.21 347V285.4H851.65V347H840.21ZM911.463 347.616C906.946 347.616 902.869 346.619 899.231 344.624C895.653 342.571 892.837 339.755 890.783 336.176C888.73 332.597 887.703 328.373 887.703 323.504C887.703 318.635 888.73 314.411 890.783 310.832C892.837 307.253 895.653 304.467 899.231 302.472C902.869 300.477 906.946 299.48 911.463 299.48C915.394 299.48 918.914 300.36 922.023 302.12C925.133 303.821 927.597 306.432 929.415 309.952C931.234 313.472 932.143 317.989 932.143 323.504C932.143 328.96 931.263 333.477 929.503 337.056C927.743 340.576 925.309 343.216 922.199 344.976C919.09 346.736 915.511 347.616 911.463 347.616ZM912.783 338.2C915.423 338.2 917.77 337.613 919.823 336.44C921.935 335.267 923.607 333.565 924.839 331.336C926.13 329.107 926.775 326.496 926.775 323.504C926.775 320.453 926.13 317.843 924.839 315.672C923.607 313.443 921.935 311.741 919.823 310.568C917.77 309.395 915.423 308.808 912.783 308.808C910.143 308.808 907.767 309.395 905.655 310.568C903.602 311.741 901.93 313.443 900.639 315.672C899.407 317.843 898.791 320.453 898.791 323.504C898.791 326.496 899.407 329.107 900.639 331.336C901.93 333.565 903.602 335.267 905.655 336.44C907.767 337.613 910.143 338.2 912.783 338.2ZM927.039 347V335.912L927.479 323.416L926.599 310.92V281.704H937.511V347H927.039ZM974.077 347.616C968.856 347.616 964.28 346.589 960.349 344.536C956.477 342.424 953.456 339.549 951.285 335.912C949.173 332.275 948.117 328.139 948.117 323.504C948.117 318.811 949.144 314.675 951.197 311.096C953.309 307.459 956.184 304.613 959.821 302.56C963.517 300.507 967.712 299.48 972.405 299.48C976.981 299.48 981.059 300.477 984.637 302.472C988.216 304.467 991.032 307.283 993.085 310.92C995.139 314.557 996.165 318.84 996.165 323.768C996.165 324.237 996.136 324.765 996.077 325.352C996.077 325.939 996.048 326.496 995.989 327.024H956.829V319.72H990.181L985.869 322.008C985.928 319.309 985.371 316.933 984.197 314.88C983.024 312.827 981.411 311.213 979.357 310.04C977.363 308.867 975.045 308.28 972.405 308.28C969.707 308.28 967.331 308.867 965.277 310.04C963.283 311.213 961.699 312.856 960.525 314.968C959.411 317.021 958.853 319.456 958.853 322.272V324.032C958.853 326.848 959.499 329.341 960.789 331.512C962.08 333.683 963.899 335.355 966.245 336.528C968.592 337.701 971.291 338.288 974.341 338.288C976.981 338.288 979.357 337.877 981.469 337.056C983.581 336.235 985.459 334.944 987.101 333.184L992.997 339.96C990.885 342.424 988.216 344.331 984.989 345.68C981.821 346.971 978.184 347.616 974.077 347.616ZM1021.25 347.616C1017.32 347.616 1013.54 347.117 1009.9 346.12C1006.32 345.064 1003.48 343.803 1001.36 342.336L1005.59 333.976C1007.7 335.325 1010.22 336.44 1013.16 337.32C1016.09 338.2 1019.02 338.64 1021.96 338.64C1025.42 338.64 1027.91 338.171 1029.44 337.232C1031.02 336.293 1031.81 335.032 1031.81 333.448C1031.81 332.157 1031.28 331.189 1030.23 330.544C1029.17 329.84 1027.79 329.312 1026.09 328.96C1024.39 328.608 1022.48 328.285 1020.37 327.992C1018.32 327.699 1016.24 327.317 1014.12 326.848C1012.07 326.32 1010.19 325.587 1008.49 324.648C1006.79 323.651 1005.41 322.331 1004.36 320.688C1003.3 319.045 1002.77 316.875 1002.77 314.176C1002.77 311.184 1003.62 308.603 1005.32 306.432C1007.02 304.203 1009.4 302.501 1012.45 301.328C1015.56 300.096 1019.23 299.48 1023.45 299.48C1026.62 299.48 1029.82 299.832 1033.04 300.536C1036.27 301.24 1038.94 302.237 1041.05 303.528L1036.83 311.888C1034.6 310.539 1032.34 309.629 1030.05 309.16C1027.82 308.632 1025.59 308.368 1023.36 308.368C1020.02 308.368 1017.53 308.867 1015.88 309.864C1014.3 310.861 1013.51 312.123 1013.51 313.648C1013.51 315.056 1014.04 316.112 1015.09 316.816C1016.15 317.52 1017.53 318.077 1019.23 318.488C1020.93 318.899 1022.81 319.251 1024.86 319.544C1026.97 319.779 1029.05 320.16 1031.11 320.688C1033.16 321.216 1035.04 321.949 1036.74 322.888C1038.5 323.768 1039.91 325.029 1040.96 326.672C1042.02 328.315 1042.55 330.456 1042.55 333.096C1042.55 336.029 1041.67 338.581 1039.91 340.752C1038.21 342.923 1035.77 344.624 1032.6 345.856C1029.44 347.029 1025.65 347.616 1021.25 347.616ZM1052.02 347V300.008H1063.02V347H1052.02ZM1057.56 292.264C1055.51 292.264 1053.81 291.619 1052.46 290.328C1051.17 289.037 1050.52 287.483 1050.52 285.664C1050.52 283.787 1051.17 282.232 1052.46 281C1053.81 279.709 1055.51 279.064 1057.56 279.064C1059.62 279.064 1061.29 279.68 1062.58 280.912C1063.93 282.085 1064.6 283.581 1064.6 285.4C1064.6 287.336 1063.96 288.979 1062.67 290.328C1061.38 291.619 1059.68 292.264 1057.56 292.264ZM1098.75 364.688C1094.41 364.688 1090.16 364.101 1085.99 362.928C1081.89 361.813 1078.51 360.171 1075.87 358L1080.8 349.728C1082.86 351.429 1085.44 352.779 1088.55 353.776C1091.71 354.832 1094.91 355.36 1098.14 355.36C1103.3 355.36 1107.08 354.157 1109.49 351.752C1111.9 349.405 1113.1 345.856 1113.1 341.104V332.744L1113.98 322.096L1113.63 311.448V300.008H1124.1V339.872C1124.1 348.379 1121.93 354.627 1117.59 358.616C1113.24 362.664 1106.97 364.688 1098.75 364.688ZM1097.35 344.888C1092.89 344.888 1088.84 343.949 1085.2 342.072C1081.62 340.136 1078.78 337.467 1076.67 334.064C1074.61 330.661 1073.59 326.672 1073.59 322.096C1073.59 317.579 1074.61 313.619 1076.67 310.216C1078.78 306.813 1081.62 304.173 1085.2 302.296C1088.84 300.419 1092.89 299.48 1097.35 299.48C1101.34 299.48 1104.91 300.272 1108.08 301.856C1111.25 303.44 1113.77 305.904 1115.65 309.248C1117.59 312.592 1118.55 316.875 1118.55 322.096C1118.55 327.317 1117.59 331.629 1115.65 335.032C1113.77 338.376 1111.25 340.869 1108.08 342.512C1104.91 344.096 1101.34 344.888 1097.35 344.888ZM1099.02 335.56C1101.78 335.56 1104.24 335.003 1106.41 333.888C1108.58 332.715 1110.25 331.131 1111.43 329.136C1112.66 327.083 1113.27 324.736 1113.27 322.096C1113.27 319.456 1112.66 317.139 1111.43 315.144C1110.25 313.091 1108.58 311.536 1106.41 310.48C1104.24 309.365 1101.78 308.808 1099.02 308.808C1096.26 308.808 1093.77 309.365 1091.54 310.48C1089.37 311.536 1087.67 313.091 1086.43 315.144C1085.26 317.139 1084.67 319.456 1084.67 322.096C1084.67 324.736 1085.26 327.083 1086.43 329.136C1087.67 331.131 1089.37 332.715 1091.54 333.888C1093.77 335.003 1096.26 335.56 1099.02 335.56ZM1165.22 299.48C1168.98 299.48 1172.32 300.213 1175.26 301.68C1178.25 303.147 1180.59 305.405 1182.3 308.456C1184 311.448 1184.85 315.32 1184.85 320.072V347H1173.85V321.48C1173.85 317.315 1172.85 314.205 1170.86 312.152C1168.92 310.099 1166.19 309.072 1162.67 309.072C1160.09 309.072 1157.8 309.6 1155.81 310.656C1153.81 311.712 1152.26 313.296 1151.14 315.408C1150.09 317.461 1149.56 320.072 1149.56 323.24V347H1138.56V300.008H1149.03V312.68L1147.18 308.808C1148.83 305.816 1151.2 303.528 1154.31 301.944C1157.48 300.301 1161.12 299.48 1165.22 299.48ZM1220.98 347.616C1215.75 347.616 1211.18 346.589 1207.25 344.536C1203.38 342.424 1200.35 339.549 1198.18 335.912C1196.07 332.275 1195.02 328.139 1195.02 323.504C1195.02 318.811 1196.04 314.675 1198.1 311.096C1200.21 307.459 1203.08 304.613 1206.72 302.56C1210.42 300.507 1214.61 299.48 1219.3 299.48C1223.88 299.48 1227.96 300.477 1231.54 302.472C1235.11 304.467 1237.93 307.283 1239.98 310.92C1242.04 314.557 1243.06 318.84 1243.06 323.768C1243.06 324.237 1243.03 324.765 1242.98 325.352C1242.98 325.939 1242.95 326.496 1242.89 327.024H1203.73V319.72H1237.08L1232.77 322.008C1232.83 319.309 1232.27 316.933 1231.1 314.88C1229.92 312.827 1228.31 311.213 1226.26 310.04C1224.26 308.867 1221.94 308.28 1219.3 308.28C1216.61 308.28 1214.23 308.867 1212.18 310.04C1210.18 311.213 1208.6 312.856 1207.42 314.968C1206.31 317.021 1205.75 319.456 1205.75 322.272V324.032C1205.75 326.848 1206.4 329.341 1207.69 331.512C1208.98 333.683 1210.8 335.355 1213.14 336.528C1215.49 337.701 1218.19 338.288 1221.24 338.288C1223.88 338.288 1226.26 337.877 1228.37 337.056C1230.48 336.235 1232.36 334.944 1234 333.184L1239.9 339.96C1237.78 342.424 1235.11 344.331 1231.89 345.68C1228.72 346.971 1225.08 347.616 1220.98 347.616ZM1253.63 347V300.008H1264.1V312.944L1262.87 309.16C1264.28 305.992 1266.48 303.587 1269.47 301.944C1272.52 300.301 1276.3 299.48 1280.82 299.48V309.952C1280.35 309.835 1279.91 309.776 1279.5 309.776C1279.09 309.717 1278.68 309.688 1278.27 309.688C1274.1 309.688 1270.79 310.92 1268.33 313.384C1265.86 315.789 1264.63 319.397 1264.63 324.208V347H1253.63ZM1293.24 347.616C1291.25 347.616 1289.55 346.941 1288.14 345.592C1286.73 344.184 1286.03 342.424 1286.03 340.312C1286.03 338.083 1286.73 336.323 1288.14 335.032C1289.55 333.683 1291.25 333.008 1293.24 333.008C1295.24 333.008 1296.94 333.683 1298.35 335.032C1299.76 336.323 1300.46 338.083 1300.46 340.312C1300.46 342.424 1299.76 344.184 1298.35 345.592C1296.94 346.941 1295.24 347.616 1293.24 347.616Z" fill="#474747"/>
<path d="M305.048 172.8H320.6V240H305.048V172.8ZM274.52 240H258.968V172.8H274.52V240ZM306.2 212.448H273.368V199.296H306.2V212.448ZM361.075 240.768C355.187 240.768 350.003 239.616 345.523 237.312C341.107 235.008 337.683 231.872 335.251 227.904C332.819 223.872 331.603 219.296 331.603 214.176C331.603 208.992 332.787 204.416 335.155 200.448C337.587 196.416 340.883 193.28 345.043 191.04C349.203 188.736 353.907 187.584 359.155 187.584C364.211 187.584 368.755 188.672 372.787 190.848C376.883 192.96 380.115 196.032 382.483 200.064C384.851 204.032 386.035 208.8 386.035 214.368C386.035 214.944 386.003 215.616 385.939 216.384C385.875 217.088 385.811 217.76 385.747 218.4H343.795V209.664H377.875L372.115 212.256C372.115 209.568 371.571 207.232 370.483 205.248C369.395 203.264 367.891 201.728 365.971 200.64C364.051 199.488 361.811 198.912 359.251 198.912C356.691 198.912 354.419 199.488 352.435 200.64C350.515 201.728 349.011 203.296 347.923 205.344C346.835 207.328 346.291 209.696 346.291 212.448V214.752C346.291 217.568 346.899 220.064 348.115 222.24C349.395 224.352 351.155 225.984 353.395 227.136C355.699 228.224 358.387 228.768 361.459 228.768C364.211 228.768 366.611 228.352 368.659 227.52C370.771 226.688 372.691 225.44 374.419 223.776L382.387 232.416C380.019 235.104 377.043 237.184 373.459 238.656C369.875 240.064 365.747 240.768 361.075 240.768ZM396.006 240V168.768H410.982V240H396.006ZM424.881 240V168.768H439.857V240H424.881ZM478.332 240.768C472.828 240.768 467.932 239.616 463.644 237.312C459.42 235.008 456.06 231.872 453.564 227.904C451.132 223.872 449.916 219.296 449.916 214.176C449.916 208.992 451.132 204.416 453.564 200.448C456.06 196.416 459.42 193.28 463.644 191.04C467.932 188.736 472.828 187.584 478.332 187.584C483.772 187.584 488.636 188.736 492.924 191.04C497.212 193.28 500.572 196.384 503.004 200.352C505.436 204.32 506.652 208.928 506.652 214.176C506.652 219.296 505.436 223.872 503.004 227.904C500.572 231.872 497.212 235.008 492.924 237.312C488.636 239.616 483.772 240.768 478.332 240.768ZM478.332 228.48C480.828 228.48 483.068 227.904 485.052 226.752C487.036 225.6 488.604 223.968 489.756 221.856C490.908 219.68 491.484 217.12 491.484 214.176C491.484 211.168 490.908 208.608 489.756 206.496C488.604 204.384 487.036 202.752 485.052 201.6C483.068 200.448 480.828 199.872 478.332 199.872C475.836 199.872 473.596 200.448 471.612 201.6C469.628 202.752 468.028 204.384 466.812 206.496C465.66 208.608 465.084 211.168 465.084 214.176C465.084 217.12 465.66 219.68 466.812 221.856C468.028 223.968 469.628 225.6 471.612 226.752C473.596 227.904 475.836 228.48 478.332 228.48ZM513.508 254.784L519.844 231.744L521.956 240.384C519.204 240.384 516.932 239.584 515.14 237.984C513.412 236.384 512.548 234.176 512.548 231.36C512.548 228.544 513.444 226.304 515.236 224.64C517.028 222.976 519.236 222.144 521.859 222.144C524.548 222.144 526.756 223.008 528.484 224.736C530.212 226.4 531.076 228.608 531.076 231.36C531.076 232.192 531.012 233.024 530.884 233.856C530.756 234.624 530.5 235.584 530.116 236.736C529.796 237.824 529.252 239.232 528.484 240.96L523.012 254.784H513.508ZM569.468 240V172.8H585.02V240H569.468ZM597.32 200.64L603.656 177.6L605.768 186.336C603.016 186.336 600.744 185.536 598.952 183.936C597.224 182.272 596.36 180.032 596.36 177.216C596.36 174.464 597.256 172.256 599.048 170.592C600.84 168.864 603.048 168 605.672 168C608.36 168 610.568 168.864 612.296 170.592C614.024 172.256 614.888 174.464 614.888 177.216C614.888 178.048 614.824 178.88 614.696 179.712C614.632 180.48 614.408 181.408 614.024 182.496C613.704 183.584 613.16 185.024 612.392 186.816L606.824 200.64H597.32ZM718.369 187.584C722.465 187.584 726.081 188.416 729.217 190.08C732.417 191.68 734.913 194.176 736.705 197.568C738.561 200.896 739.489 205.184 739.489 210.432V240H724.513V212.736C724.513 208.576 723.649 205.504 721.921 203.52C720.193 201.536 717.761 200.544 714.625 200.544C712.449 200.544 710.497 201.056 708.769 202.08C707.041 203.04 705.697 204.512 704.737 206.496C703.777 208.48 703.297 211.008 703.297 214.08V240H688.321V212.736C688.321 208.576 687.457 205.504 685.729 203.52C684.065 201.536 681.665 200.544 678.529 200.544C676.353 200.544 674.401 201.056 672.673 202.08C670.945 203.04 669.601 204.512 668.641 206.496C667.681 208.48 667.201 211.008 667.201 214.08V240H652.225V188.352H666.529V202.464L663.841 198.336C665.633 194.816 668.161 192.16 671.425 190.368C674.753 188.512 678.529 187.584 682.753 187.584C687.489 187.584 691.617 188.8 695.137 191.232C698.721 193.6 701.089 197.248 702.241 202.176L696.961 200.736C698.689 196.704 701.441 193.504 705.217 191.136C709.057 188.768 713.441 187.584 718.369 187.584ZM795.076 224.64L794.212 206.688L826.372 172.8H843.652L814.66 204L806.02 213.216L795.076 224.64ZM781.156 240V172.8H796.612V240H781.156ZM827.14 240L803.236 210.72L813.412 199.68L845.284 240H827.14ZM871.36 240.768C867.072 240.768 863.232 239.936 859.84 238.272C856.512 236.608 853.92 234.08 852.064 230.688C850.208 227.232 849.28 222.848 849.28 217.536V188.352H864.256V215.328C864.256 219.616 865.152 222.784 866.944 224.832C868.8 226.816 871.392 227.808 874.72 227.808C877.024 227.808 879.072 227.328 880.864 226.368C882.656 225.344 884.064 223.808 885.088 221.76C886.112 219.648 886.624 217.024 886.624 213.888V188.352H901.6V240H887.392V225.792L889.984 229.92C888.256 233.504 885.696 236.224 882.304 238.08C878.976 239.872 875.328 240.768 871.36 240.768ZM915.475 240V168.768H930.451V240H915.475ZM966.526 240.768C961.662 240.768 957.278 239.68 953.374 237.504C949.47 235.264 946.366 232.16 944.062 228.192C941.822 224.224 940.702 219.552 940.702 214.176C940.702 208.736 941.822 204.032 944.062 200.064C946.366 196.096 949.47 193.024 953.374 190.848C957.278 188.672 961.662 187.584 966.526 187.584C970.878 187.584 974.686 188.544 977.95 190.464C981.214 192.384 983.742 195.296 985.534 199.2C987.326 203.104 988.222 208.096 988.222 214.176C988.222 220.192 987.358 225.184 985.63 229.152C983.902 233.056 981.406 235.968 978.142 237.888C974.942 239.808 971.07 240.768 966.526 240.768ZM969.118 228.48C971.55 228.48 973.758 227.904 975.742 226.752C977.726 225.6 979.294 223.968 980.446 221.856C981.662 219.68 982.27 217.12 982.27 214.176C982.27 211.168 981.662 208.608 980.446 206.496C979.294 204.384 977.726 202.752 975.742 201.6C973.758 200.448 971.55 199.872 969.118 199.872C966.622 199.872 964.382 200.448 962.398 201.6C960.414 202.752 958.814 204.384 957.598 206.496C956.446 208.608 955.87 211.168 955.87 214.176C955.87 217.12 956.446 219.68 957.598 221.856C958.814 223.968 960.414 225.6 962.398 226.752C964.382 227.904 966.622 228.48 969.118 228.48ZM982.654 240V229.44L982.942 214.08L981.982 198.816V168.768H996.958V240H982.654ZM1036.45 240.768C1030.56 240.768 1025.38 239.616 1020.9 237.312C1016.48 235.008 1013.06 231.872 1010.63 227.904C1008.19 223.872 1006.98 219.296 1006.98 214.176C1006.98 208.992 1008.16 204.416 1010.53 200.448C1012.96 196.416 1016.26 193.28 1020.42 191.04C1024.58 188.736 1029.28 187.584 1034.53 187.584C1039.59 187.584 1044.13 188.672 1048.16 190.848C1052.26 192.96 1055.49 196.032 1057.86 200.064C1060.23 204.032 1061.41 208.8 1061.41 214.368C1061.41 214.944 1061.38 215.616 1061.31 216.384C1061.25 217.088 1061.19 217.76 1061.12 218.4H1019.17V209.664H1053.25L1047.49 212.256C1047.49 209.568 1046.95 207.232 1045.86 205.248C1044.77 203.264 1043.27 201.728 1041.35 200.64C1039.43 199.488 1037.19 198.912 1034.63 198.912C1032.07 198.912 1029.79 199.488 1027.81 200.64C1025.89 201.728 1024.39 203.296 1023.3 205.344C1022.21 207.328 1021.67 209.696 1021.67 212.448V214.752C1021.67 217.568 1022.27 220.064 1023.49 222.24C1024.77 224.352 1026.53 225.984 1028.77 227.136C1031.07 228.224 1033.76 228.768 1036.83 228.768C1039.59 228.768 1041.99 228.352 1044.03 227.52C1046.15 226.688 1048.07 225.44 1049.79 223.776L1057.76 232.416C1055.39 235.104 1052.42 237.184 1048.83 238.656C1045.25 240.064 1041.12 240.768 1036.45 240.768ZM1097.01 240.768C1091.12 240.768 1085.94 239.616 1081.46 237.312C1077.04 235.008 1073.62 231.872 1071.19 227.904C1068.76 223.872 1067.54 219.296 1067.54 214.176C1067.54 208.992 1068.72 204.416 1071.09 200.448C1073.52 196.416 1076.82 193.28 1080.98 191.04C1085.14 188.736 1089.84 187.584 1095.09 187.584C1100.15 187.584 1104.69 188.672 1108.72 190.848C1112.82 192.96 1116.05 196.032 1118.42 200.064C1120.79 204.032 1121.97 208.8 1121.97 214.368C1121.97 214.944 1121.94 215.616 1121.88 216.384C1121.81 217.088 1121.75 217.76 1121.68 218.4H1079.73V209.664H1113.81L1108.05 212.256C1108.05 209.568 1107.51 207.232 1106.42 205.248C1105.33 203.264 1103.83 201.728 1101.91 200.64C1099.99 199.488 1097.75 198.912 1095.19 198.912C1092.63 198.912 1090.36 199.488 1088.37 200.64C1086.45 201.728 1084.95 203.296 1083.86 205.344C1082.77 207.328 1082.23 209.696 1082.23 212.448V214.752C1082.23 217.568 1082.84 220.064 1084.05 222.24C1085.33 224.352 1087.09 225.984 1089.33 227.136C1091.64 228.224 1094.32 228.768 1097.4 228.768C1100.15 228.768 1102.55 228.352 1104.6 227.52C1106.71 226.688 1108.63 225.44 1110.36 223.776L1118.32 232.416C1115.96 235.104 1112.98 237.184 1109.4 238.656C1105.81 240.064 1101.68 240.768 1097.01 240.768ZM1162.47 240.768C1158.12 240.768 1154.31 239.808 1151.05 237.888C1147.78 235.968 1145.22 233.056 1143.37 229.152C1141.58 225.184 1140.68 220.192 1140.68 214.176C1140.68 208.096 1141.54 203.104 1143.27 199.2C1145 195.296 1147.5 192.384 1150.76 190.464C1154.02 188.544 1157.93 187.584 1162.47 187.584C1167.34 187.584 1171.69 188.704 1175.53 190.944C1179.43 193.12 1182.5 196.192 1184.74 200.16C1187.05 204.128 1188.2 208.8 1188.2 214.176C1188.2 219.616 1187.05 224.32 1184.74 228.288C1182.5 232.256 1179.43 235.328 1175.53 237.504C1171.69 239.68 1167.34 240.768 1162.47 240.768ZM1131.94 258.624V188.352H1146.25V198.912L1145.96 214.272L1146.92 229.536V258.624H1131.94ZM1159.88 228.48C1162.38 228.48 1164.58 227.904 1166.5 226.752C1168.49 225.6 1170.06 223.968 1171.21 221.856C1172.42 219.68 1173.03 217.12 1173.03 214.176C1173.03 211.168 1172.42 208.608 1171.21 206.496C1170.06 204.384 1168.49 202.752 1166.5 201.6C1164.58 200.448 1162.38 199.872 1159.88 199.872C1157.38 199.872 1155.14 200.448 1153.16 201.6C1151.18 202.752 1149.61 204.384 1148.46 206.496C1147.3 208.608 1146.73 211.168 1146.73 214.176C1146.73 217.12 1147.3 219.68 1148.46 221.856C1149.61 223.968 1151.18 225.6 1153.16 226.752C1155.14 227.904 1157.38 228.48 1159.88 228.48ZM1203.33 240.768C1200.77 240.768 1198.56 239.904 1196.7 238.176C1194.91 236.384 1194.01 234.112 1194.01 231.36C1194.01 228.608 1194.91 226.4 1196.7 224.736C1198.56 223.008 1200.77 222.144 1203.33 222.144C1205.95 222.144 1208.16 223.008 1209.95 224.736C1211.74 226.4 1212.64 228.608 1212.64 231.36C1212.64 234.112 1211.74 236.384 1209.95 238.176C1208.16 239.904 1205.95 240.768 1203.33 240.768Z" fill="#4B53BC"/>
</svg>
